<?xml version="1.0" encoding="UTF-8"?>
<!-- Generator: visioncortex VTracer 0.6.12 -->
<svg version="1.1" xmlns="http://www.w3.org/2000/svg" width="1024" height="1024" viewBox="0 0 1024 1024" role="img" aria-label="Thoughtlane">
<path d="M0 0 C1.21 0.17 2.41 0.34 3.65 0.52 C45.23 6.57 94.21 19.3 121.18 54.25 C129.56 66.9 131.89 79.93 129.54 94.95 C123.27 117.86 103.45 134.08 83.74 145.48 C66.57 155.03 48.44 162.32 30 169 C28.7 169.47 27.41 169.94 26.07 170.42 C11.96 175.5 -2.2 180.44 -16.46 185.1 C-65.16 201.03 -112.51 221.3 -152.9 253.34 C-156.6 256.27 -160.34 259.16 -164.06 262.06 C-164.81 262.65 -165.56 263.23 -166.34 263.83 C-168.56 265.56 -170.78 267.28 -173 269 C-173.69 269.54 -174.38 270.07 -175.09 270.62 C-212.74 299.74 -253.33 314.46 -301.21 309.57 C-332.11 304.71 -360.96 288.84 -379.68 263.53 C-393.34 242.77 -399.62 219.49 -394.88 194.75 C-390 175.35 -379.6 155.86 -363 144 C-362.01 144 -361.02 144 -360 144 C-360.03 144.8 -360.03 144.8 -360.18 148.87 C-360.67 168.19 -358.97 183.63 -346 199 C-329.81 215.19 -306.87 220.19 -284.75 220.25 C-240.47 220.21 -198.76 201.89 -160.3 181.44 C-111.65 155.61 -60.85 137.47 -7.69 123.44 C47.06 108.98 47.06 108.98 66 98 C66.99 97.45 67.99 96.9 69.01 96.34 C78.03 91.03 86.85 83.8 91 74 C91.69 70.12 91.69 70.12 92 67 C91.61 67.74 91.23 68.47 90.83 69.23 C90.31 70.21 89.79 71.18 89.25 72.19 C88.74 73.15 88.23 74.11 87.7 75.11 C77.74 92.04 56.82 99.32 38.8 104.3 C37.72 104.6 36.65 104.9 35.54 105.21 C21.99 108.91 8.27 111.94 -5.44 115 C-30.66 120.64 -55.67 126.66 -80.25 134.69 C-81.81 135.2 -83.38 135.71 -84.99 136.23 C-113.38 145.6 -140.48 157.92 -167.59 170.42 C-208.28 189.15 -254.99 208.79 -299.81 192.69 C-314.65 186.56 -326.3 177.26 -334 163 C-334.41 162.25 -334.82 161.5 -335.24 160.73 C-342.29 146.49 -340.76 130.59 -336 115.93 C-331.36 103.89 -324.05 93.62 -315.2 84.32 C-313 82 -313 82 -310.56 78.88 C-306.52 74.34 -301.74 70.77 -297 67 C-296.2 66.34 -295.41 65.68 -294.59 65 C-246.6 25.34 -181.45 8.13 -121 0 C-119.85 -0.17 -118.71 -0.33 -117.52 -0.5 C-79.5 -5.84 -37.97 -5.66 0 0 Z M-243 107 C-247.11 113.17 -248.1 118.76 -247 126 C-244.34 131.42 -240.66 134.84 -235.12 137.25 C-227.09 139.18 -219.76 137.49 -212.54 133.71 C-206.3 129.83 -202.31 125.49 -199.69 118.5 C-198.42 112.02 -199.09 106.84 -201 100.56 C-201.37 99.33 -201.74 98.09 -202.12 96.82 C-202.41 95.89 -202.7 94.96 -203 94 C-201.8 93.65 -200.61 93.3 -199.38 92.94 C-195.28 91.58 -191.57 89.82 -187.74 87.83 C-179.58 83.71 -171.22 80.18 -162.75 76.75 C-161.95 76.43 -161.16 76.11 -160.34 75.77 C-103.25 52.74 -41.84 37.62 20 43 C8.22 37.11 -8.1 37.39 -21 37 C-22.05 36.96 -23.09 36.92 -24.17 36.88 C-87.79 35.53 -196.58 59.73 -243 107 Z " fill="#2362CD" transform="translate(588,254)"/>
<path d="M0 0 C12.15 0.99 23.95 9.17 33 17 C34.08 17.86 35.15 18.72 36.26 19.61 C54.02 34.12 68.42 53.88 71.75 77.11 C73.61 98.64 68.11 117.99 55.15 135.45 C13.29 185.13 -58.89 192.76 -118.85 204.24 C-120.27 204.52 -121.7 204.79 -123.17 205.07 C-124.6 205.34 -126.03 205.62 -127.5 205.9 C-271.52 233.47 -271.52 233.47 -299.31 272.88 C-305.49 282.59 -307.16 291.5 -306 303 C-304.05 311.41 -299.21 318.2 -292 323 C-292 323.66 -292 324.32 -292 325 C-304.42 324.79 -314.88 318.14 -323.59 309.67 C-334.23 297.88 -338.36 284.45 -338.21 268.79 C-336.82 244.24 -322.53 224.27 -305 208 C-292.04 196.74 -277.97 187.35 -263 179 C-262.24 178.57 -261.48 178.14 -260.69 177.7 C-217.58 153.58 -169.08 140.32 -121.91 126.67 C-107.26 122.42 -92.68 118.02 -78.2 113.21 C-76.88 112.77 -75.55 112.33 -74.19 111.88 C-51.48 104.23 -28.03 95.29 -10 79 C-9.57 78.62 -9.57 78.62 -7.42 76.7 C3.02 66.89 9.37 55.3 11 41 C11.21 26.67 8.14 13.86 0 2 C0 1.34 0 0.68 0 0 Z " fill="#26A794" transform="translate(735,325)"/>
<path d="M0 0 C0.66 0 1.32 0 2 0 C15.02 34.15 17.95 70.03 3 104 C-9.67 128.88 -31.85 146.09 -58 155 C-86.83 164.23 -117.12 166.58 -147.13 169 C-147.65 169.04 -147.65 169.04 -150.26 169.25 C-155.31 169.66 -160.36 170.06 -165.41 170.43 C-206.59 173.59 -206.59 173.59 -220 187 C-222.74 192.49 -222.9 196.96 -222 203 C-217.63 214.5 -204.06 221.67 -194.44 228.55 C-180.37 238.75 -180.37 238.75 -178.88 247.88 C-178.58 256.05 -181.9 262.06 -187.06 268.19 C-195.66 277.18 -207.35 283.85 -219.75 285.5 C-225.47 284.83 -228.06 281.85 -232 278 C-240.52 270.43 -250.16 264.66 -260 259 C-260.78 258.55 -261.55 258.11 -262.35 257.64 C-278.53 248.46 -295.73 241.83 -313 235 C-339.29 224.59 -339.29 224.59 -349 217 C-349.55 216.62 -349.55 216.62 -352.31 214.69 C-359.43 207.57 -363.25 199.67 -364.38 189.69 C-363.19 178.02 -357.23 169.36 -348.44 161.94 C-324.61 143.87 -294.68 136.35 -265.96 130.19 C-264.36 129.84 -262.76 129.5 -261.11 129.14 C-241.88 125.04 -222.52 121.6 -203.15 118.15 C-171.47 112.47 -139.82 106.41 -109 97 C-108.12 96.73 -107.24 96.47 -106.33 96.19 C-80.01 88.14 -54.48 77.5 -33 60 C-32.14 59.31 -31.28 58.61 -30.39 57.89 C-12.33 42.52 -4.24 22.82 0 0 Z " fill="#33AF44" transform="translate(820,437)"/>
<path d="M0 0 C4.72 3.95 6.93 8.01 8 14 C8.3 19.02 8.21 23.98 8 29 C7.98 30.02 7.96 31.03 7.94 32.08 C7.81 34.75 7.81 34.75 7 39 C4.94 40.62 4.94 40.62 2 42 C-0.78 44.56 -3.39 47.27 -6 50 C-6.66 49.67 -7.32 49.34 -8 49 C-7.31 48.35 -6.63 47.7 -5.92 47.02 C-5.02 46.15 -4.12 45.28 -3.19 44.38 C-2.74 43.95 -2.74 43.95 -0.48 41.77 C3.89 36.89 5.35 32.46 6 26 C5.61 26.74 5.23 27.47 4.83 28.23 C4.31 29.21 3.79 30.18 3.25 31.19 C2.74 32.15 2.23 33.11 1.7 34.11 C-8.26 51.04 -29.18 58.32 -47.2 63.3 C-48.28 63.6 -49.35 63.9 -50.46 64.21 C-64.01 67.91 -77.73 70.94 -91.44 74 C-116.66 79.64 -141.67 85.66 -166.25 93.69 C-167.81 94.2 -169.38 94.71 -170.99 95.23 C-199.38 104.6 -226.48 116.92 -253.59 129.42 C-294.28 148.15 -340.99 167.79 -385.81 151.69 C-400.65 145.56 -412.3 136.26 -420 122 C-420.41 121.25 -420.82 120.5 -421.24 119.73 C-428.29 105.49 -426.76 89.59 -422 74.93 C-417.36 62.89 -410.05 52.62 -401.2 43.32 C-399 41 -399 41 -396.56 37.88 C-392.52 33.34 -387.74 29.77 -383 26 C-382.2 25.34 -381.41 24.68 -380.59 24 C-370.27 15.47 -358.32 6.36 -346 1 C-344.68 1.33 -343.36 1.66 -342 2 C-342 2.66 -342 3.32 -342 4 C-343.77 5.37 -343.77 5.37 -346.24 6.94 C-347.14 7.52 -348.04 8.1 -348.96 8.7 C-349.92 9.31 -350.88 9.93 -351.88 10.56 C-358.75 15.04 -365.26 19.48 -371.16 25.23 C-376.12 30 -376.12 30 -379 30 C-379.25 30.76 -379.5 31.53 -379.75 32.31 C-381 35 -381 35 -385 38 C-385.33 38.99 -385.66 39.98 -386 41 C-386.72 41.68 -387.44 42.36 -388.19 43.06 C-397.98 53.29 -400.36 64.59 -400.2 78.36 C-400.03 81.38 -399.85 84.1 -399 87 C-398.34 87.33 -397.68 87.66 -397 88 C-397 89.32 -397 90.64 -397 92 C-396.34 92 -395.68 92 -395 92 C-393.76 93.62 -392.58 95.3 -391.44 97 C-383.01 108.78 -372.06 116.25 -358 120 C-356.49 120.52 -354.99 121.03 -353.44 121.56 C-331.88 128.55 -302.84 125.16 -282 117 C-279 116.32 -276 115.65 -273 115 C-261.1 111.72 -249.53 107.41 -237.94 103.19 C-236.54 102.68 -235.14 102.17 -233.7 101.65 C-225.26 98.57 -216.84 95.45 -208.44 92.26 C-204.01 90.64 -199.53 89.32 -195 88 C-193.68 87.5 -192.36 87.01 -191 86.5 C-186.39 84.77 -181.71 83.4 -177 82 C-173.14 80.84 -169.29 79.67 -165.44 78.5 C-164.46 78.2 -163.48 77.91 -162.48 77.61 C-158.07 76.27 -153.69 74.9 -149.33 73.41 C-144.99 72 -140.71 70.95 -136.25 70 C-134.81 69.69 -133.37 69.38 -131.89 69.06 C-131.12 68.9 -130.35 68.73 -129.55 68.56 C-127.73 68.16 -125.92 67.74 -124.12 67.31 C-115.2 65.16 -106.24 63.64 -97.19 62.19 C-15.16 48.73 -15.16 48.73 -1 30 C-0.71 29.5 -0.71 29.5 0.75 27 C1.16 26.34 1.58 25.68 2 25 C2.99 25 3.98 25 5 25 C4.77 16.35 4.54 9.47 0 2 C0 1.34 0 0.68 0 0 Z " fill="#23218C" transform="translate(674,295)"/>
<path d="M0 0 C0 0.66 0 1.32 0 2 C0.77 2.2 0.77 2.2 4.69 3.19 C9.3 4.56 11.99 6.12 15 10 C15.33 10.99 15.66 11.98 16 13 C15.21 12.78 15.21 12.78 11.19 11.69 C10.19 11.42 9.18 11.14 8.15 10.86 C6.12 10.31 4.09 9.74 2.07 9.17 C-1.98 8.03 -5.83 7.02 -10 6.44 C-13 6 -13 6 -16 4 C-28.21 1.39 -40.54 0.38 -53 0 C-54.05 -0.04 -55.09 -0.08 -56.17 -0.12 C-123.45 -1.55 -217.28 23.99 -271.06 66 C-275.97 71.01 -278.21 75.65 -278.5 82.62 C-278.3 87.49 -277.39 90.34 -274 94 C-270.75 96.38 -270.75 96.38 -268 98 C-272.42 99.47 -274.82 97.84 -279 96 C-284.37 92.63 -287.9 87.48 -289.81 81.44 C-289.87 80.63 -289.94 79.83 -290 79 C-290.08 77.95 -290.17 76.9 -290.25 75.81 C-289.78 68.67 -288.08 62.23 -283 57 C-282.65 56.61 -282.65 56.61 -280.88 54.62 C-271.08 45.68 -259.17 39.68 -246.62 35.56 C-242.83 34.28 -239.29 32.79 -235.64 31.15 C-225.29 26.65 -214.6 22.88 -204 19 C-202.74 18.54 -201.47 18.07 -200.17 17.59 C-182.81 11.31 -165.31 6.35 -147.38 2.06 C-146.43 1.83 -145.48 1.61 -144.51 1.37 C-124.78 -3.34 -104.99 -7.12 -84.75 -8.75 C-83.29 -8.87 -81.83 -8.99 -80.32 -9.12 C-53.8 -11.2 -24.77 -10.88 0 0 Z " fill="#042A7A" transform="translate(620,292)"/>
<path d="M0 0 C1.26 0.19 2.52 0.38 3.81 0.57 C40.18 6.13 40.18 6.13 48 12 C50.75 12.69 50.75 12.69 53 13 C53 13.66 53 14.32 53 15 C53.99 15.33 54.98 15.66 56 16 C56 16.99 56 17.98 56 19 C52.08 18.28 48.32 17.26 44.5 16.12 C17.95 8.47 17.95 8.47 6 9 C6 8.34 6 7.68 6 7 C5.31 7.02 4.62 7.05 3.9 7.07 C-3.2 7.2 -9.95 6.6 -16.97 5.54 C-28.58 3.99 -40.13 3.81 -51.83 3.81 C-54.73 3.81 -57.63 3.79 -60.54 3.78 C-73.21 3.74 -85.67 4.21 -98.06 7.12 C-101.89 7.98 -105.1 8 -109 8 C-111.46 8.51 -113.92 9.02 -116.37 9.56 C-120.59 10.27 -124.73 10.06 -129 10 C-130.32 10.33 -131.64 10.66 -133 11 C-134.57 11.12 -136.13 11.25 -137.75 11.38 C-142.55 11.81 -146.52 13.18 -151 15 C-154.24 15.81 -156.61 16 -160 16 C-164.89 16.88 -169.27 18.01 -173.75 20.12 C-178 22 -178 22 -183 22 C-183.99 22.99 -184.98 23.98 -186 25 C-187.32 24.67 -188.64 24.34 -190 24 C-192.31 25.25 -192.31 25.25 -195 27 C-198.69 28.68 -202.06 30.01 -206 31 C-207.32 31.66 -208.64 32.32 -210 33 C-212.07 33.58 -214.16 34.12 -216.25 34.62 C-216.79 34.76 -216.79 34.76 -219.52 35.41 C-220.34 35.61 -221.16 35.8 -222 36 C-222 35.01 -222 34.02 -222 33 C-218.7 31.35 -215.4 29.7 -212 28 C-212.33 27.67 -212.66 27.34 -213 27 C-213.76 27.31 -213.76 27.31 -217.62 28.88 C-220.33 29.97 -223.01 31 -225.8 31.89 C-229 33 -231.94 34.33 -234.98 35.82 C-236.08 36.36 -237.18 36.89 -238.32 37.44 C-240.62 38.57 -242.93 39.7 -245.23 40.83 C-246.32 41.36 -247.42 41.9 -248.55 42.45 C-249.05 42.69 -249.05 42.69 -251.57 43.93 C-254 45 -254 45 -256 45 C-256 44.34 -256 43.68 -256 43 C-256.66 43 -257.32 43 -258 43 C-258 42.34 -258 41.68 -258 41 C-214.57 19.24 -169.1 6.47 -121 0 C-120.43 -0.08 -120.43 -0.08 -117.52 -0.5 C-79.53 -5.84 -37.93 -5.73 0 0 Z " fill="#74D9F9" transform="translate(588,254)"/>
<path d="M0 0 C6.84 2.15 10.65 7.57 15 13 C15.33 13.66 15.66 14.32 16 15 C16.66 14.67 17.32 14.34 18 14 C20.59 21.55 21.7 28.11 20 36 C19.34 37.32 18.68 38.64 18 40 C17.67 41.32 17.34 42.64 17 44 C12.76 49.25 8.4 53.95 3 58 C2.01 57.67 1.02 57.34 0 57 C-4.18 58.8 -7.97 61.15 -11.81 63.56 C-42.53 82.57 -74.27 94.05 -108.76 104.16 C-120.37 107.57 -131.88 111.26 -143.38 115.06 C-144.37 115.39 -145.37 115.72 -146.4 116.06 C-154.25 118.67 -161.89 121.6 -169.44 125 C-172.77 126.46 -176.01 127.74 -179.44 128.94 C-184.87 130.88 -189.89 133.34 -195 136 C-196.96 136.98 -198.92 137.96 -200.88 138.94 C-201.89 139.44 -202.9 139.95 -203.94 140.47 C-205.93 141.46 -207.91 142.45 -209.9 143.43 C-228.14 152.46 -228.14 152.46 -236.73 157.65 C-239.7 159.42 -242.82 160.65 -246 162 C-248.68 163.32 -251.34 164.65 -254 166 C-255.26 166.6 -256.52 167.2 -257.81 167.81 C-262.2 170.1 -266.27 172.68 -270.39 175.41 C-272.88 176.93 -275.27 178 -278 179 C-283.07 180.95 -287.67 182.85 -291.81 186.44 C-296.19 189.96 -301.11 193.31 -306.94 192.69 C-307.28 192.57 -307.28 192.57 -309 192 C-309.66 192.33 -310.32 192.66 -311 193 C-308.1 187.21 -304.43 184.92 -298.5 182.62 C-294.06 180.85 -289.71 178.97 -285.38 176.94 C-281.48 175.11 -277.58 173.41 -273.56 171.88 C-269.55 170.23 -266.55 168.42 -263 166 C-260.84 165.03 -258.68 164.07 -256.5 163.14 C-252.78 161.45 -249.24 159.46 -245.68 157.46 C-242.82 155.9 -239.92 154.44 -237 153 C-235.84 152.42 -234.67 151.84 -233.48 151.24 C-230.77 149.88 -228.06 148.53 -225.36 147.18 C-222.54 145.77 -219.73 144.36 -216.93 142.95 C-184.58 126.66 -151.45 114.29 -116.79 103.89 C-114.13 103.04 -111.57 102.07 -109 101 C-109 100.34 -109 99.68 -109 99 C-109.99 99.16 -109.99 99.16 -115 100 C-111.8 97.86 -109.56 97.29 -105.83 96.44 C-104.56 96.14 -103.29 95.85 -101.98 95.54 C-100.61 95.22 -99.23 94.89 -97.81 94.56 C-76.73 89.45 -56.09 82.8 -36.19 74.12 C-35.38 73.78 -34.58 73.44 -33.75 73.08 C-29.23 71.01 -27.36 69.27 -25 65 C-22.14 62.94 -22.14 62.94 -18.81 61 C-17.65 60.31 -16.49 59.62 -15.29 58.91 C-14.2 58.28 -13.12 57.65 -12 57 C-6.35 53.72 -2.13 50.37 2.24 45.57 C4 44 4 44 7 44 C7.27 43.32 7.54 42.64 7.81 41.94 C9 39 9 39 10.62 35.94 C12.98 29.19 12.63 22.79 11.06 15.88 C8.6 11.24 5.5 7.85 1.86 4.1 C0 2 0 2 0 0 Z M-313 193 C-312.67 193.17 -312.67 193.17 -311 194 C-311.33 194.17 -311.33 194.17 -313 195 C-313 194.34 -313 193.68 -313 193 Z " fill="#46E1FB" transform="translate(674,290)"/>
<path d="M0 0 C0 1.67 0 3.33 0 5 C-15.4 10.91 -30.98 15.91 -46.81 20.5 C-47.27 20.63 -47.27 20.63 -49.6 21.31 C-64.54 25.64 -64.54 25.64 -70 27 C-71.65 27.46 -73.29 27.91 -74.94 28.38 C-80.24 29.83 -85.58 31.07 -90.96 32.25 C-94.04 33.01 -96.99 33.99 -100 35 C-101.42 35.31 -102.85 35.62 -104.31 35.94 C-109 37 -109 37 -113.69 38.56 C-117.2 39.73 -120.37 40.45 -124 41 C-124.33 41.33 -124.66 41.66 -125 42 C-116.23 40.65 -107.64 38.83 -99 36.8 C-95 36 -95 36 -90 36 C-94.39 38.2 -98.66 39.18 -103.42 40.21 C-104.35 40.41 -105.28 40.62 -106.24 40.84 C-110.2 41.72 -114.17 42.59 -118.14 43.46 C-136.26 47.45 -153.89 52.1 -171.12 59.06 C-176.51 61.24 -181.97 63.16 -187.57 64.71 C-192.77 66.16 -196.53 67.88 -201 71 C-202.66 71.37 -204.33 71.71 -206 72 C-207.03 72.52 -208.06 73.03 -209.12 73.56 C-212 75 -212 75 -215 75 C-217.68 76.32 -220.34 77.65 -223 79 C-224.32 79.33 -225.64 79.66 -227 80 C-228.68 81.31 -230.35 82.65 -232 84 C-236.26 86.79 -240.28 89.14 -245 91 C-246.03 91.7 -247.06 92.4 -248.12 93.12 C-251 95 -251 95 -254 95 C-256.49 97.15 -258.84 99.33 -261.19 101.62 C-267.09 107.36 -273.02 112.5 -280.02 116.9 C-284.02 119.72 -287.24 123.11 -290.62 126.62 C-297.46 133.73 -297.46 133.73 -302 136 C-302.99 136.99 -303.98 137.98 -305 139 C-301.23 127.92 -291.75 119.33 -283 112 C-281.88 111.02 -280.76 110.04 -279.61 109.03 C-273.65 103.82 -267.71 98.84 -261.09 94.5 C-259 93 -259 93 -257.29 91.06 C-254.65 88.68 -251.87 87.51 -248.61 86.14 C-242.54 83.49 -236.76 80.19 -230.91 77.07 C-230.42 76.81 -230.42 76.81 -227.91 75.48 C-227.01 75.01 -226.12 74.53 -225.2 74.04 C-223 73 -223 73 -221 73 C-221 72.34 -221 71.68 -221 71 C-219.96 70.67 -218.93 70.35 -217.86 70.01 C-216.5 69.57 -215.15 69.14 -213.75 68.69 C-213.08 68.47 -213.08 68.47 -209.67 67.39 C-206 66 -206 66 -202 63 C-199.11 61.82 -196.25 60.73 -193.31 59.69 C-192.55 59.41 -192.55 59.41 -188.68 58.01 C-187.81 57.71 -186.94 57.4 -186.05 57.08 C-183.76 56.27 -181.46 55.44 -179.17 54.61 C-169.1 50.97 -158.96 47.87 -148.62 45.06 C-147.84 44.85 -147.84 44.85 -143.86 43.75 C-128.8 39.64 -113.7 35.71 -98.57 31.88 C-24.98 13.21 -24.98 13.21 0 0 Z " fill="#51D2FC" transform="translate(717,425)"/>
<path d="M0 0 C0.33 0.17 0.33 0.17 2 1 C-2.28 6.01 -6.94 8.18 -12.88 10.69 C-13.87 11.11 -14.87 11.54 -15.9 11.98 C-66.46 33 -66.46 33 -88 33 C-88.33 33.99 -88.66 34.98 -89 36 C-91.99 36.71 -94.99 37.37 -98 38 C-99.03 38.52 -100.06 39.03 -101.12 39.56 C-104 41 -104 41 -107.25 41.44 C-111.22 42.03 -114.53 43.35 -118.22 44.9 C-121.15 46.06 -124.1 46.98 -127.12 47.88 C-134.89 50.2 -142.44 53.07 -150 56 C-150.89 56.34 -151.78 56.67 -152.69 57.02 C-155.08 58.03 -157.22 59.24 -159.44 60.56 C-163.06 62.62 -165.89 63.33 -170 64 C-172.26 65.08 -174.51 66.17 -176.73 67.32 C-181.12 69.58 -185.55 71.73 -190 73.88 C-190.85 74.29 -191.7 74.71 -192.57 75.14 C-194.69 76.16 -196.84 77.09 -199 78 C-199.66 77.67 -200.32 77.34 -201 77 C-198.56 73.34 -197.08 73.06 -193 71.62 C-188.64 70.03 -184.5 68.33 -180.38 66.19 C-176 64 -176 64 -173 64 C-173 63.34 -173 62.68 -173 62 C-172.67 61.83 -172.67 61.83 -171 61 C-171.33 60.34 -171.66 59.68 -172 59 C-171 56 -171 56 -168.98 54.84 C-168.53 54.66 -168.53 54.66 -166.26 53.72 C-165.75 53.51 -165.75 53.51 -163.14 52.44 C-162 51.98 -160.86 51.53 -159.69 51.06 C-158.49 50.58 -157.3 50.1 -156.06 49.61 C-125.63 37.63 -94.17 28.54 -62.57 20.25 C-59 19.31 -55.44 18.38 -51.88 17.44 C-51 17.21 -50.13 16.98 -49.24 16.74 C-33.48 12.57 -17.87 7.9 -2.98 1.19 C-2.49 0.99 -2.49 0.99 0 0 Z " fill="#13ABE6" transform="translate(647,356)"/>
<path d="M0 0 C-3.3 0.66 -6.6 1.32 -10 2 C-9.67 2.33 -9.67 2.33 -8 4 C-17.19 9.08 -27.01 10.65 -37.24 12.35 C-41 13 -41 13 -45 14 C-45.33 14.99 -45.66 15.98 -46 17 C-49.21 18.11 -52.33 18.89 -55.69 19.44 C-58 20 -58 20 -62 23 C-63.32 22.67 -64.64 22.34 -66 22 C-68.31 23.25 -68.31 23.25 -71 25 C-74.69 26.68 -78.06 28.01 -82 29 C-82.66 29.33 -82.66 29.33 -86 31 C-88.07 31.58 -90.16 32.12 -92.25 32.62 C-92.79 32.76 -92.79 32.76 -95.52 33.41 C-96.34 33.61 -97.16 33.8 -98 34 C-98 33.01 -98 32.02 -98 31 C-94.7 29.35 -91.4 27.7 -88 26 C-88.33 25.67 -88.66 25.34 -89 25 C-89.76 25.31 -89.76 25.31 -93.62 26.88 C-96.33 27.97 -99.01 29 -101.8 29.89 C-105 31 -107.94 32.33 -110.98 33.82 C-112.08 34.36 -113.18 34.89 -114.32 35.44 C-116.62 36.57 -118.93 37.7 -121.23 38.83 C-122.32 39.36 -123.42 39.9 -124.55 40.45 C-125.05 40.69 -125.05 40.69 -127.57 41.93 C-130 43 -130 43 -132 43 C-132 42.34 -132 41.68 -132 41 C-132.66 41 -133.32 41 -134 41 C-134 40.34 -134 39.68 -134 39 C-96.24 20.08 -56.59 7.35 -14.88 0.5 C-13.83 0.33 -12.79 0.16 -11.71 -0.02 C-7.41 -0.68 -4.27 -1.07 0 0 Z " fill="#6E5FE6" transform="translate(464,256)"/>
<path d="M0 0 C0.33 0.33 0.33 0.33 2 2 C-2.12 2.66 -2.12 2.66 -23 6 C-23 6.66 -23 7.32 -23 8 C-22.01 8.16 -22.01 8.16 -17 9 C-27.68 14.34 -41.35 15.35 -53.06 17.06 C-57.52 17.73 -61.7 18.62 -66 20 C-70.92 21.53 -75.78 22.95 -80.81 24.06 C-85.12 25.03 -88.54 26.07 -92.25 28.44 C-96.86 31.06 -101.95 32.46 -107.06 33.81 C-110.47 35.19 -112.97 37.27 -115.83 39.54 C-119.33 41.9 -122.96 42.86 -127 44 C-127 43.34 -127 42.68 -127 42 C-127.99 41.67 -128.98 41.34 -130 41 C-127.78 34.33 -117.91 30.99 -111.99 27.91 C-82.36 13.47 -49.63 7.99 -17.36 2.72 C-14.57 2.26 -11.78 1.78 -8.99 1.29 C-7.82 1.09 -6.64 0.88 -5.43 0.68 C-4.42 0.5 -3.41 0.32 -2.37 0.13 C-1.59 0.09 -0.81 0.04 0 0 Z " fill="#60DFD3" transform="translate(607,566)"/>
<path d="M0 0 C0.33 0.66 0.66 1.32 1 2 C-0.1 1.98 -1.19 1.97 -2.32 1.95 C-31.44 1.59 -59.47 2.55 -88 9 C-88.63 9.13 -88.63 9.13 -91.83 9.82 C-99.56 11.5 -106.62 13.91 -113.81 17.19 C-118 19 -118 19 -121 19 C-121.52 19.23 -121.52 19.23 -124.12 20.38 C-128 22 -128 22 -132.62 23 C-136.53 23.89 -138.73 24.85 -142 27 C-143.32 27.33 -144.64 27.66 -146 28 C-148.34 29.17 -150.68 30.35 -153 31.56 C-156 33 -156 33 -160 34 C-162.02 34.96 -164.02 35.97 -166 37 C-167.01 37.5 -168.02 37.99 -169.06 38.5 C-172 40 -172 40 -174.38 41.62 C-177.86 43.45 -181.12 43.67 -185 44 C-183 40 -183 40 -180.25 39 C-179.71 38.83 -179.71 38.83 -177 38 C-174.99 36.68 -172.99 35.34 -171 34 C-168.69 32.95 -166.35 31.95 -164 31 C-162.7 30.44 -161.4 29.89 -160.06 29.31 C-159.05 28.88 -158.04 28.45 -157 28 C-159 27 -159 27 -161.93 27.93 C-163.09 28.38 -164.25 28.84 -165.44 29.31 C-166.59 29.76 -167.74 30.21 -168.93 30.68 C-172 32 -172 32 -175 34 C-178 35.01 -181 36.01 -184 37 C-185.32 37.66 -186.64 38.32 -188 39 C-188.99 38.67 -189.98 38.34 -191 38 C-187.58 33.43 -186.59 33.62 -181.3 32.76 C-176.91 31.75 -172.76 30.19 -168.56 28.56 C-167.77 28.26 -166.98 27.96 -166.16 27.65 C-162.32 26.14 -159.96 24.96 -157 22 C-154.34 21.61 -151.67 21.28 -149 21 C-146.67 20.35 -144.36 19.64 -142.06 18.88 C-134.93 16.58 -127.77 14.46 -120.56 12.44 C-119.58 12.16 -118.59 11.88 -117.57 11.59 C-102.95 7.5 -88.3 4.37 -73.29 2.19 C-70.67 1.81 -68.06 1.42 -65.44 1.03 C-43.93 -2.18 -21.56 -4.14 0 0 Z " fill="#68D0FC" transform="translate(603,301)"/>
<path d="M0 0 C0.33 0.17 0.33 0.17 2 1 C-3.24 4.29 -8.07 7.15 -14 9 C-16.35 10.31 -18.68 11.65 -21 13 C-24.31 14.71 -27.66 16.35 -31 18 C-51.72 28.22 -51.72 28.22 -60.73 33.65 C-63.7 35.42 -66.82 36.65 -70 38 C-72.68 39.32 -75.34 40.65 -78 42 C-79.26 42.6 -80.52 43.2 -81.81 43.81 C-86.2 46.1 -90.27 48.68 -94.39 51.41 C-96.88 52.93 -99.27 54 -102 55 C-107.07 56.95 -111.67 58.85 -115.81 62.44 C-120.19 65.96 -125.11 69.31 -130.94 68.69 C-131.62 68.46 -132.3 68.23 -133 68 C-133.33 68.16 -133.33 68.16 -135 69 C-132.1 63.21 -128.43 60.92 -122.5 58.62 C-118.06 56.85 -113.71 54.97 -109.38 52.94 C-105.48 51.11 -101.58 49.41 -97.56 47.88 C-93.55 46.23 -90.55 44.42 -87 42 C-84.84 41.03 -82.68 40.07 -80.5 39.14 C-76.78 37.45 -73.24 35.46 -69.68 33.46 C-66.82 31.9 -63.92 30.44 -61 29 C-59.84 28.42 -58.67 27.84 -57.48 27.24 C-54.77 25.88 -52.06 24.53 -49.36 23.18 C-46.54 21.77 -43.73 20.36 -40.93 18.95 C-29.47 13.18 -17.91 7.69 -6.19 2.5 C-5.05 1.99 -3.91 1.49 -2.73 0.97 C-1.83 0.65 -0.93 0.33 0 0 Z M-137 69 C-136.67 69.17 -136.67 69.17 -135 70 C-135.33 70.17 -135.33 70.17 -137 71 C-137 70.34 -137 69.68 -137 69 Z " fill="#8B8AFA" transform="translate(498,414)"/>
<path d="M0 0 C0 1.67 0 3.33 0 5 C-15.4 10.91 -30.98 15.91 -46.81 20.5 C-47.73 20.77 -48.65 21.03 -49.6 21.31 C-64.54 25.64 -64.54 25.64 -70 27 C-71.65 27.46 -73.29 27.91 -74.94 28.38 C-80.24 29.83 -85.58 31.07 -90.96 32.25 C-94.04 33.01 -96.99 33.99 -100 35 C-101.42 35.31 -102.85 35.62 -104.31 35.94 C-109 37 -109 37 -113.69 38.56 C-117.2 39.73 -120.37 40.45 -124 41 C-124.33 41.33 -124.66 41.66 -125 42 C-116.23 40.65 -107.64 38.83 -99 36.8 C-95 36 -95 36 -90 36 C-94.41 38.21 -98.71 39.2 -103.49 40.24 C-104.42 40.45 -105.36 40.66 -106.32 40.88 C-109.32 41.55 -112.32 42.21 -115.31 42.88 C-119.23 43.74 -123.14 44.62 -127.05 45.49 C-128 45.7 -128.95 45.92 -129.92 46.13 C-136.64 47.65 -143.27 49.37 -149.89 51.28 C-154.68 52.39 -159.1 52.27 -164 52 C-160.81 49.87 -158.73 49.5 -155 49 C-155 48.34 -155 47.68 -155 47 C-129.59 39.84 -104.13 32.92 -78.49 26.64 C-51.4 20.01 -24.77 13.1 0 0 Z " fill="#53E8F7" transform="translate(717,425)"/>
<path d="M0 0 C-5.78 5.78 -17.58 6.08 -25.24 7.35 C-29 8 -29 8 -33 9 C-33.33 9.99 -33.66 10.98 -34 12 C-37.21 13.11 -40.33 13.89 -43.69 14.44 C-46 15 -46 15 -50 18 C-51.32 17.67 -52.64 17.34 -54 17 C-56.31 18.25 -56.31 18.25 -59 20 C-62.69 21.68 -66.06 23.01 -70 24 C-70.66 24.33 -70.66 24.33 -74 26 C-76.07 26.58 -78.16 27.12 -80.25 27.62 C-80.79 27.76 -80.79 27.76 -83.52 28.41 C-84.34 28.61 -85.16 28.8 -86 29 C-86 28.01 -86 27.02 -86 26 C-82.7 24.35 -79.4 22.7 -76 21 C-77.32 20.34 -78.64 19.68 -80 19 C-19.15 0 -19.15 0 0 0 Z " fill="#88A8FC" transform="translate(452,261)"/>
<path d="M0 0 C0.88 0.08 1.77 0.17 2.68 0.25 C8.29 0.73 13.7 1.18 19.31 0.5 C29.73 -0.66 40.04 -0.85 49 5 C49.33 4.67 49.66 4.34 50 4 C49.01 3.34 48.02 2.68 47 2 C47 1.34 47 0.68 47 0 C54.11 0.46 59.46 2.15 66 5 C66 5.66 66 6.32 66 7 C67.55 7.39 69.09 7.78 70.69 8.19 C75.3 9.56 77.99 11.12 81 15 C81.16 15.5 81.16 15.5 82 18 C80.41 17.57 78.82 17.13 77.19 16.69 C76.19 16.42 75.18 16.14 74.15 15.86 C72.12 15.31 70.09 14.74 68.07 14.17 C64.02 13.03 60.17 12.02 56 11.44 C53 11 53 11 50 9 C38.92 6.63 27.87 5.64 16.56 5.31 C13 5 13 5 10 3 C7.3 2.59 7.3 2.59 4.31 2.38 C3.32 2.3 2.32 2.23 1.3 2.15 C0.54 2.1 -0.22 2.05 -1 2 C-0.67 1.34 -0.34 0.68 0 0 Z " fill="#014271" transform="translate(554,287)"/>
<path d="M0 0 C6.05 0.46 10.65 2.56 15.88 5.44 C16.65 5.85 17.42 6.25 18.21 6.67 C23.86 9.72 23.86 9.72 25 12 C23.68 12 22.36 12 21 12 C22.4 16.46 24.64 18.81 28 22 C30.27 25.41 30.57 27.66 31.12 31.69 C31.29 32.87 31.46 34.05 31.63 35.26 C31.75 36.17 31.88 37.07 32 38 C32.99 37.67 33.98 37.34 35 37 C36.88 41.69 37.13 45.23 36.69 50.25 C36.59 51.47 36.49 52.69 36.39 53.95 C36 57 36 57 35 59 C34.34 59.17 34.34 59.17 31 60 C30.01 60.99 29.02 61.98 28 63 C28.03 61.38 28.07 59.77 28.11 58.1 C28.13 55.94 28.16 53.78 28.19 51.62 C28.21 50.56 28.24 49.5 28.26 48.41 C28.38 35.92 24.77 24.28 16.19 14.94 C15.47 14.3 14.74 13.66 14 13 C13.67 12.34 13.34 11.68 13 11 C12.34 11 11.68 11 11 11 C10.67 10.34 10.34 9.68 10 9 C8.68 8.67 7.36 8.34 6 8 C5.67 8.66 5.34 9.32 5 10 C0 2.25 0 2.25 0 0 Z " fill="#E1FC85" transform="translate(735,325)"/>
<path d="M0 0 C0.66 0 1.32 0 2 0 C2.71 1.7 3.39 3.41 4.06 5.12 C4.45 6.08 4.83 7.03 5.22 8.01 C6.13 11.5 5.83 13.5 5 17 C4.73 18.2 4.45 19.4 4.17 20.63 C-2.18 46.11 -2.18 46.11 -8 56 C-8.66 56.17 -8.66 56.17 -12 57 C-13.95 58.92 -15.82 60.94 -17.62 63 C-31.47 78.37 -31.47 78.37 -38 80 C-35.35 77.27 -32.71 74.76 -29.75 72.38 C-23.95 67.5 -19.19 61.28 -15 55 C-14.34 55 -13.68 55 -13 55 C-12.73 54.33 -12.46 53.65 -12.19 52.96 C-11.32 50.8 -10.45 48.66 -9.56 46.51 C-6.93 40.07 -4.39 33.83 -3 27 C-4.65 28.32 -6.3 29.64 -8 31 C-7.59 29.68 -7.17 28.36 -6.75 27 C-4.09 18.13 -1.73 9.1 0 0 Z " fill="#D5FC50" transform="translate(820,437)"/>
<path d="M0 0 C0 1.33 0 2.67 0 4 C-1.37 4.22 -2.74 4.44 -4.15 4.66 C-23.83 7.9 -43.11 12.07 -61.97 18.61 C-65.85 19.95 -69.75 21.2 -73.69 22.38 C-74.74 22.69 -75.8 23.01 -76.89 23.34 C-80.33 24.07 -83.49 24.11 -87 24 C-87.33 24.99 -87.66 25.98 -88 27 C-91.22 28.52 -94.37 29.85 -97.69 31.12 C-98.59 31.48 -99.49 31.84 -100.41 32.21 C-109.45 35.76 -109.45 35.76 -114 36 C-114.66 35.34 -115.32 34.68 -116 34 C-31.8 -1.25 -31.8 -1.25 0 0 Z " fill="#0B88CD" transform="translate(531,300)"/>
<path d="M0 0 C0.66 0.33 1.32 0.66 2 1 C1.01 2.32 0.02 3.64 -1 5 C-1.66 5 -2.32 5 -3 5 C-2.36 5.91 -1.72 6.81 -1.06 7.75 C2.56 13.46 2.85 19.42 2 26 C-1.36 36.3 -7.15 41.81 -16.44 46.88 C-24.12 49.3 -32.02 49.11 -40 49 C-40.33 48.34 -40.66 47.68 -41 47 C-39.56 47.06 -38.11 47.12 -36.62 47.19 C-27.15 47.15 -19.26 44.09 -12 38 C-7.1 32.09 -5.34 25.62 -6 18 C-6.98 14.99 -7.97 11.99 -9 9 C-9 7.35 -9 5.7 -9 4 C-2.16 0.78 -2.16 0.78 0 0 Z " fill="#1C3FD0" transform="translate(394,344)"/>
<path d="M0 0 C0.66 0.33 1.32 0.66 2 1 C1.01 1 0.02 1 -1 1 C-0.67 0.67 -0.34 0.34 0 0 Z M-1 3 C-2.07 3.45 -3.14 3.91 -4.25 4.38 C-8.62 6.27 -12.17 8.13 -16 11 C-20.26 13.77 -24.28 16.14 -29 18 C-30.03 18.7 -31.06 19.4 -32.12 20.12 C-35 22 -35 22 -38 22 C-40.49 24.15 -42.84 26.33 -45.19 28.62 C-51.09 34.36 -57.02 39.5 -64.02 43.9 C-68.02 46.72 -71.24 50.11 -74.62 53.62 C-81.46 60.73 -81.46 60.73 -86 63 C-86.99 63.99 -87.98 64.98 -89 66 C-87.48 61.44 -85.03 58.05 -82.12 54.25 C-81.26 53.1 -80.4 51.95 -79.51 50.77 C-77 48 -77 48 -73 47 C-71.23 45.2 -69.47 43.4 -67.73 41.58 C-62.23 36.38 -56.04 31.99 -49.98 27.48 C-48.34 26.25 -46.71 25 -45.09 23.74 C-36.64 17.29 -10.98 -1.99 -1 3 Z " fill="#3FB7FD" transform="translate(501,498)"/>
<path d="M0 0 C0.53 0 0.53 0 3.24 0.03 C4.05 0.04 4.85 0.05 5.69 0.06 C5.69 0.72 5.69 1.38 5.69 2.06 C-0.5 4.71 -6.63 5.99 -13.23 7.25 C-21.86 8.97 -30.41 11.11 -38.81 13.75 C-43.31 15.06 -43.31 15.06 -47.06 15.31 C-52.67 16.3 -56.99 18.83 -61.95 21.57 C-65.41 23.11 -67.58 23.37 -71.31 23.06 C-70.31 20.06 -70.31 20.06 -67.24 18.41 C-47.07 9.83 -22.28 -0.24 0 0 Z " fill="#80EFD6" transform="translate(565.3125,573.9375)"/>
<path d="M0 0 C0 0.66 0 1.32 0 2 C0.75 1.84 1.5 1.69 2.27 1.53 C3.25 1.33 4.24 1.14 5.25 0.94 C5.74 0.84 5.74 0.84 8.2 0.34 C11 0 11 0 15 1 C3 5 3 5 -0.12 5.94 C-3 7 -3 7 -7 10 C-8.32 10.33 -9.64 10.66 -11 11 C-15.98 12.47 -20.39 14.62 -25 17 C-26.05 17.52 -27.1 18.03 -28.19 18.56 C-31 20 -31 20 -33.38 21.62 C-36.86 23.45 -40.12 23.67 -44 24 C-42 20 -42 20 -39.25 19 C-38.18 18.67 -37.11 18.34 -36 18 C-33.99 16.68 -31.99 15.34 -30 14 C-27.69 12.95 -25.35 11.95 -23 11 C-21.7 10.44 -20.4 9.89 -19.06 9.31 C-18.05 8.88 -17.04 8.45 -16 8 C-18 7 -18 7 -20.93 7.93 C-21.51 8.15 -21.51 8.15 -24.44 9.31 C-25.59 9.76 -26.74 10.21 -27.93 10.68 C-31 12 -31 12 -34 14 C-37 15.01 -40 16.01 -43 17 C-43.66 17.33 -43.66 17.33 -47 19 C-47.99 18.67 -48.98 18.34 -50 18 C-46.58 13.43 -45.59 13.62 -40.3 12.76 C-35.91 11.75 -31.76 10.19 -27.56 8.56 C-26.77 8.26 -25.98 7.96 -25.16 7.65 C-21.32 6.14 -18.96 4.96 -16 2 C-13.34 1.61 -10.67 1.28 -8 1 C-6.89 0.63 -5.77 0.26 -4.62 -0.12 C-2 -1 -2 -1 0 0 Z " fill="#7ABDFC" transform="translate(462,321)"/>
<path d="M0 0 C1.29 0 2.58 0 3.91 0 C7.99 0.01 12.06 0.02 16.14 0.04 C18.92 0.04 21.7 0.04 24.49 0.05 C31.27 0.06 38.04 0.08 44.82 0.1 C44.82 0.43 44.82 0.76 44.82 1.1 C39.14 1.27 33.45 1.43 27.76 1.6 C26.96 1.62 26.96 1.62 22.88 1.74 C21.32 1.79 19.77 1.83 18.16 1.88 C16.73 1.92 15.3 1.96 13.83 2.01 C11.24 2.07 8.64 2.09 6.04 2.09 C-2.05 2.11 -10.38 3.33 -18.24 5.22 C-22.07 6.07 -25.27 6.1 -29.18 6.1 C-31.63 6.61 -34.09 7.12 -36.55 7.66 C-40.77 8.36 -44.9 8.16 -49.18 8.1 C-50.5 8.43 -51.82 8.76 -53.18 9.1 C-54.74 9.22 -56.31 9.35 -57.93 9.47 C-62.73 9.91 -66.7 11.28 -71.18 13.1 C-74.42 13.91 -76.78 14.1 -80.18 14.1 C-82.85 14.73 -85.52 15.39 -88.18 16.1 C-88.51 15.44 -88.84 14.78 -89.18 14.1 C-82.5 11.18 -75.76 9.98 -68.59 8.75 C-65.18 8.1 -65.18 8.1 -63.18 7.1 C-59.86 6.56 -56.56 6.06 -53.24 5.6 C-52.29 5.46 -51.33 5.33 -50.35 5.19 C-45.44 4.5 -40.56 3.91 -35.61 3.54 C-31.18 3.1 -31.18 3.1 -27.18 1.1 C-18.22 -0.25 -9.03 -0.04 0 0 Z " fill="#44BEFC" transform="translate(508.17578125,255.90234375)"/>
<path d="M0 0 C0.65 0 0.65 0 3.94 0.01 C23.11 0.05 42.01 0.44 61 3.31 C62.26 3.5 63.52 3.69 64.81 3.88 C78.38 5.96 91.87 8.25 105 12.31 C105 12.64 105 12.97 105 13.31 C102.62 13.2 100.25 13.07 97.88 12.94 C96.55 12.87 95.23 12.8 93.87 12.73 C90.28 12.34 87.36 11.6 84 10.31 C84 9.65 84 8.99 84 8.31 C82.35 8.64 80.7 8.97 79 9.31 C79 9.64 79 9.97 79 10.31 C75.33 9.99 71.67 9.66 68 9.31 C66.37 9.17 64.75 9.02 63.07 8.87 C61.34 8.71 59.61 8.54 57.88 8.38 C57.02 8.3 56.17 8.23 55.29 8.15 C53.18 7.94 51.09 7.64 49 7.31 C48.84 6.98 48.84 6.98 48 5.31 C33.53 1.83 18.76 1.9 3.97 2.03 C0.35 2.06 -3.28 2.07 -6.9 2.08 C-9.24 2.09 -11.58 2.1 -13.91 2.11 C-14.98 2.11 -16.05 2.12 -17.15 2.12 C-23.5 2.18 -29.69 2.62 -36 3.31 C-38.87 3.38 -41.75 3.4 -44.62 3.38 C-46.02 3.37 -47.41 3.36 -48.85 3.35 C-49.89 3.34 -50.93 3.32 -52 3.31 C-52 2.98 -52 2.65 -52 2.31 C-34.64 0.47 -17.45 -0.05 0 0 Z " fill="#2FABC1" transform="translate(527,250.6875)"/>
<path d="M0 0 C2 3 2 3 4 7 C4.66 6.34 5.32 5.68 6 5 C5.42 8.08 4.72 11.08 3.94 14.12 C3 18 3 18 3 21 C0.12 26.99 -3.78 31.27 -8.44 35.88 C-9.09 36.55 -9.75 37.23 -10.42 37.92 C-13.93 41.42 -16.15 43.25 -21 44 C-21.5 44.2 -21.5 44.2 -24 45.19 C-27 46 -27 46 -29.81 45.38 C-32 44 -32 44 -33 40 C-34.65 40 -36.3 40 -38 40 C-38 39.67 -38 39.34 -38 39 C-37.13 38.91 -36.26 38.83 -35.36 38.74 C-24.8 37.49 -13.39 35.27 -6 27 C0.04 18.2 0.77 10.48 0 0 Z " fill="#7C83F5" transform="translate(395,355)"/>
<path d="M0 0 C6.88 2.16 10.56 7.6 15 13 C15.66 13.66 16.32 14.32 17 15 C18.09 19.63 18.1 24.13 18.06 28.88 C18.05 30.21 18.04 31.55 18.04 32.93 C18.02 33.94 18.01 34.96 18 36 C17.34 36 16.68 36 16 36 C15.77 37.22 15.55 38.43 15.31 39.69 C13.33 46.2 9.7 48.72 4 52 C3.11 52.72 2.23 53.44 1.31 54.19 C-1 56 -1 56 -3 56 C-1.33 52.67 -0.14 50.88 2.31 48.25 C9.32 40.4 12.37 33.63 12.2 23.02 C11.64 14.59 7.51 9.92 1.86 4.1 C0 2 0 2 0 0 Z " fill="#92FBFC" transform="translate(674,290)"/>
<path d="M0 0 C0.99 0 1.98 0 3 0 C0.86 4.28 -1.57 7.05 -4.81 10.56 C-5.85 11.7 -6.89 12.83 -7.96 14 C-10.6 16.61 -12.82 18.19 -16 20 C-17.33 21.27 -18.62 22.59 -19.88 23.94 C-23.29 27.45 -26.63 29.73 -31 32 C-31.97 32.66 -32.94 33.32 -33.94 34 C-38.73 37.13 -43.44 39.61 -49 41 C-50.67 41.65 -52.34 42.31 -54 43 C-54.16 42.5 -54.16 42.5 -55 40 C-50.7 36.15 -46.52 33.58 -41.31 31.12 C-26.19 23.74 -10.24 13.65 0 0 Z " fill="#5CCB06" transform="translate(800,484)"/>
<path d="M0 0 C4.54 6.82 4.5 14.2 3 22 C2.34 23.32 1.68 24.64 1 26 C0.67 27.32 0.34 28.64 0 30 C-4.24 35.25 -8.6 39.95 -14 44 C-14.5 43.83 -14.5 43.83 -17 43 C-22.75 45.43 -27.85 49.06 -33.07 52.45 C-34.04 52.96 -35.01 53.47 -36 54 C-36.99 53.67 -37.98 53.34 -39 53 C-35 50 -35 50 -33 50 C-32.96 49.26 -32.92 48.51 -32.88 47.75 C-31.44 43.23 -27.65 41.87 -23.62 39.75 C-19.57 37.05 -16.36 33.51 -13 30 C-12.34 30.33 -11.68 30.66 -11 31 C-11.48 31.54 -11.96 32.09 -12.46 32.64 C-12.78 33 -12.78 33 -14.38 34.81 C-15 35.52 -15.63 36.23 -16.27 36.96 C-18 39 -18 39 -20 42 C-19.41 41.53 -18.82 41.06 -18.21 40.57 C-11.52 35.3 -11.52 35.3 -8.12 33.31 C-3.73 30.6 -2.39 26.7 -1 22 C-0.34 22 0.32 22 1 22 C0.67 14.74 0.34 7.48 0 0 Z " fill="#47F0F3" transform="translate(691,304)"/>
<path d="M0 0 C16.21 -0.47 31.93 0.94 48 3 C48 2.67 48 2.34 48 2 C50.64 2 53.28 2 56 2 C56.16 2.33 56.16 2.33 57 4 C60.42 4.59 63.8 5.08 67.25 5.5 C69.15 5.73 71.05 5.97 72.95 6.22 C73.8 6.32 74.65 6.42 75.52 6.53 C80.81 7.53 84.57 10.04 89 13 C89 13.99 89 14.98 89 16 C85.08 15.28 81.32 14.26 77.5 13.12 C50.95 5.47 50.95 5.47 39 6 C39 5.34 39 4.68 39 4 C38.31 4.02 37.62 4.05 36.9 4.07 C29.7 4.2 22.84 3.55 15.71 2.51 C10.49 1.79 5.26 1.37 0 1 C0 0.67 0 0.34 0 0 Z " fill="#54E9FC" transform="translate(555,257)"/>
<path d="M0 0 C1.39 2.77 0.56 3.97 -0.38 6.88 C-1.98 11.9 -3.13 16.34 -3.1 21.64 C-3.09 22.71 -3.09 23.78 -3.09 24.88 C-3.08 25.99 -3.07 27.11 -3.06 28.25 C-3.06 29.38 -3.05 30.5 -3.05 31.66 C-3.04 34.44 -3.02 37.22 -3 40 C-2.34 40 -1.68 40 -1 40 C-0.48 41.4 0.03 42.81 0.56 44.25 C2.69 49.6 5.44 54.42 8.41 59.34 C9.7 61.5 10.87 63.74 12 66 C11.67 66.16 11.67 66.16 10 67 C11.65 68.98 13.3 70.96 15 73 C14.01 73 13.02 73 12 73 C0.45 61.42 -7.04 44.28 -7.25 28 C-7.17 17.87 -5.76 8.54 0 0 Z " fill="#C58AFA" transform="translate(217,409)"/>
<path d="M0 0 C-2.38 1.19 -4.75 2.38 -7.12 3.56 C-8.58 4.29 -10.04 5.02 -11.55 5.78 C-14.3 7.15 -17.06 8.52 -19.83 9.88 C-26.76 13.29 -33.46 16.88 -40 21 C-40.84 21.52 -41.67 22.04 -42.53 22.58 C-55.32 30.63 -67.75 39.16 -80 48 C-87.67 53.5 -95.36 58.98 -103.06 64.44 C-103.42 64.69 -103.42 64.69 -105.23 65.98 C-112.94 71.43 -112.94 71.43 -116 73 C-116.66 72.67 -117.32 72.34 -118 72 C-111.32 67.03 -104.51 62.29 -97.62 57.62 C-90.98 53.12 -84.56 48.42 -78.23 43.46 C-57.05 27.32 -33.95 13.6 -10 2 C-9.47 1.71 -9.47 1.71 -6.8 0.22 C-4 -1 -4 -1 0 0 Z " fill="#063DA7" transform="translate(502,453)"/>
<path d="M0 0 C2.71 1.58 5.31 3.22 7.88 5.02 C32.83 22.21 62.53 24.61 92 24 C88.44 27.56 87.69 27.39 82.85 27.43 C81.61 27.44 80.36 27.46 79.08 27.47 C78.42 27.46 78.42 27.46 75.06 27.44 C74.39 27.43 74.39 27.43 70.96 27.42 C59.85 27.25 49.72 25.92 39 23 C38.44 22.85 38.44 22.85 35.61 22.09 C22.37 18.09 10.24 11.31 0 2 C0 1.34 0 0.68 0 0 Z " fill="#663BE5" transform="translate(252,472)"/>
<path d="M0 0 C1.65 0 3.3 0 5 0 C4.34 0.99 3.68 1.98 3 3 C2.01 3 1.02 3 0 3 C0 3.66 0 4.32 0 5 C-3 7 -3 7 -7.38 8.44 C-12 10 -12 10 -14.5 11.56 C-18.11 13.64 -21.96 14.1 -26 15 C-27.69 15.96 -29.35 16.97 -31 18 C-33.09 19.14 -35.19 20.28 -37.28 21.41 C-45.3 25.78 -52.78 30.38 -60 36 C-61.03 36.77 -62.07 37.54 -63.13 38.33 C-70 43.49 -76.4 48.95 -82.64 54.85 C-85 57 -85 57 -87 58 C-81.05 46.11 -67.71 38.23 -57.31 30.5 C-54 28 -54 28 -51 25 C-48.89 24.04 -46.78 23.08 -44.65 22.18 C-38.58 19.48 -32.77 16.19 -26.91 13.07 C-25.92 12.55 -24.93 12.02 -23.91 11.48 C-23.01 11.01 -22.12 10.53 -21.2 10.04 C-19 9 -19 9 -17 9 C-17 8.34 -17 7.68 -17 7 C-15.94 6.66 -14.88 6.32 -13.79 5.98 C-12.41 5.53 -11.04 5.08 -9.62 4.62 C-8.94 4.4 -8.94 4.4 -5.48 3.29 C-2 2 -2 2 0 0 Z " fill="#80D5FD" transform="translate(513,489)"/>
<path d="M0 0 C-1.25 2.44 -1.25 2.44 -3 5 C-7.24 6.06 -11.14 7.01 -15.5 7.44 C-20 8 -20 8 -24 10 C-24.99 10.33 -25.98 10.66 -27 11 C-27.16 10.84 -27.16 10.84 -28 10 C-30.51 10.39 -33.01 10.86 -35.5 11.38 C-36.87 11.65 -38.24 11.93 -39.66 12.21 C-43 13 -43 13 -44 14 C-47.03 14.07 -50.03 14.09 -53.06 14.06 C-53.92 14.06 -54.77 14.05 -55.65 14.05 C-57.77 14.04 -59.88 14.02 -62 14 C-62 13.67 -62 13.34 -62 13 C-61.49 12.89 -61.49 12.89 -58.91 12.34 C-54.16 11.34 -49.43 10.33 -44.69 9.31 C-43.84 9.13 -42.99 8.95 -42.12 8.76 C-31.14 6.41 -20.24 3.92 -9.44 0.81 C-6.15 0.04 -3.36 -0.17 0 0 Z " fill="#22AB1F" transform="translate(707,537)"/>
<path d="M0 0 C0.33 0.17 0.33 0.17 2 1 C-3.24 4.29 -8.07 7.15 -14 9 C-16.35 10.31 -18.68 11.65 -21 13 C-24.31 14.71 -27.66 16.35 -31 18 C-41.83 23.34 -52.67 28.74 -63 35 C-63.33 35.17 -63.33 35.17 -65 36 C-65.66 35.34 -66.32 34.68 -67 34 C-62.25 29.64 -58.01 26.77 -52.06 24.12 C-46.46 21.59 -40.92 18.98 -35.44 16.19 C-28.43 12.65 -21.33 9.33 -14.19 6.06 C-13.13 5.58 -12.07 5.09 -10.98 4.59 C-3.4 1.13 -3.4 1.13 0 0 Z " fill="#6A96FC" transform="translate(498,414)"/>
<path d="M0 0 C-3.3 0.66 -6.6 1.32 -10 2 C-9.34 2.66 -8.68 3.32 -8 4 C-9.34 4.25 -10.68 4.51 -12.07 4.77 C-20.51 6.37 -28.95 7.97 -37.38 9.62 C-37.94 9.73 -37.94 9.73 -40.77 10.29 C-43.1 10.8 -45.41 11.41 -47.7 12.08 C-50.97 12.99 -53.62 13.16 -57 13 C-57.33 12.34 -57.66 11.68 -58 11 C-57.01 11 -56.02 11 -55 11 C-55 10.34 -55 9.68 -55 9 C-41.78 5.78 -28.57 2.75 -15.12 0.56 C-14.6 0.47 -14.6 0.47 -11.92 0.03 C-7.56 -0.65 -4.33 -1.08 0 0 Z " fill="#597AE4" transform="translate(464,256)"/>
<path d="M0 0 C0.66 0.66 1.32 1.32 2 2 C-2.12 2.66 -2.12 2.66 -23 6 C-23 6.66 -23 7.32 -23 8 C-22.01 8.16 -22.01 8.16 -17 9 C-21.31 11.15 -25.33 12.07 -30 13 C-30.65 13.14 -30.65 13.14 -33.93 13.83 C-35.34 14.11 -36.74 14.4 -38.19 14.69 C-39.52 14.96 -40.86 15.23 -42.23 15.51 C-45.84 15.98 -48.48 15.82 -52 15 C-49.22 12.22 -46.26 12.14 -42.51 11.46 C-40.32 11.06 -38.16 10.54 -36 10 C-36 9.34 -36 8.68 -36 8 C-38.31 8 -40.62 8 -43 8 C-43 7.67 -43 7.34 -43 7 C-36.92 5.95 -30.83 4.92 -24.74 3.9 C-22.67 3.55 -20.59 3.2 -18.52 2.84 C-15.55 2.33 -12.58 1.83 -9.6 1.34 C-9.14 1.25 -9.14 1.25 -6.78 0.84 C-4.53 0.47 -2.27 0.23 0 0 Z " fill="#64EDA3" transform="translate(607,566)"/>
<path d="M0 0 C8.46 3.38 15.22 9.62 19 18 C20.96 25.86 21.12 33.83 17 41 C16.01 41.99 15.02 42.98 14 44 C14.05 42.47 14.09 40.93 14.14 39.36 C14.57 19.01 14.57 19.01 10 10 C9.34 9.34 8.68 8.68 8 8 C7.67 8.17 7.67 8.17 6 9 C4.02 6.03 2.04 3.06 0 0 Z " fill="#17E2F4" transform="translate(667,288)"/>
<path d="M0 0 C-8.38 4 -8.38 4 -14 4 C-14.99 4.99 -15.98 5.98 -17 7 C-18.32 6.67 -19.64 6.34 -21 6 C-23.31 7.25 -23.31 7.25 -26 9 C-29.69 10.68 -33.06 12.01 -37 13 C-37.66 13.33 -37.66 13.33 -41 15 C-43.07 15.58 -45.16 16.12 -47.25 16.62 C-47.79 16.76 -47.79 16.76 -50.52 17.41 C-51.34 17.61 -52.16 17.8 -53 18 C-53 17.01 -53 16.02 -53 15 C-47.84 12.23 -42.94 10.3 -37.3 8.71 C-35 8 -35 8 -32 6.5 C-25.21 3.1 -17.88 1.66 -10.45 0.43 C-3.3 -0.83 -3.3 -0.83 0 0 Z " fill="#797CF8" transform="translate(419,272)"/>
<path d="M0 0 C4.72 3.95 6.93 8.01 8 14 C8.3 19.02 8.21 23.98 8 29 C7.98 30.02 7.96 31.03 7.94 32.08 C7.81 34.75 7.81 34.75 7 39 C4.94 40.62 4.94 40.62 2 42 C-0.78 44.56 -3.39 47.27 -6 50 C-6.66 49.67 -7.32 49.34 -8 49 C-7.66 48.67 -7.66 48.67 -5.92 47.02 C-5.47 46.59 -5.47 46.59 -3.19 44.38 C-2.29 43.52 -1.4 42.66 -0.48 41.77 C3.89 36.89 5.35 32.46 6 26 C5.6 26.75 5.2 27.5 4.79 28.27 C4.53 28.76 4.53 28.76 3.19 31.25 C2.93 31.74 2.93 31.74 1.61 34.2 C0 37 0 37 -3 41 C-3.66 41 -4.32 41 -5 41 C-5.66 39.35 -6.32 37.7 -7 36 C-6.26 35.3 -5.51 34.6 -4.75 33.88 C-2 31 -2 31 0.12 27.69 C0.74 26.8 1.36 25.91 2 25 C2.99 25 3.98 25 5 25 C4.77 16.35 4.54 9.47 0 2 C0 1.34 0 0.68 0 0 Z " fill="#026F7F" transform="translate(674,295)"/>
<path d="M0 0 C-1.71 1.42 -3.41 2.84 -5.12 4.25 C-6.08 5.04 -7.03 5.83 -8.01 6.64 C-11 9 -11 9 -13.89 10.82 C-17.95 13.67 -21.2 17.06 -24.62 20.62 C-31.46 27.73 -31.46 27.73 -36 30 C-36.5 30.5 -36.5 30.5 -39 33 C-37.48 28.44 -35.03 25.05 -32.12 21.25 C-31.69 20.68 -31.69 20.68 -29.51 17.77 C-27 15 -27 15 -23 14 C-21.07 12.33 -21.07 12.33 -19.12 10.25 C-6.96 -2.32 -6.96 -2.32 0 0 Z " fill="#30A6FC" transform="translate(451,531)"/>
<path d="M0 0 C-6.16 4.2 -11.79 5.05 -19 6 C-21.21 6.33 -23.42 6.66 -25.62 7 C-26.7 7.16 -27.78 7.32 -28.89 7.49 C-31.76 7.96 -34.59 8.52 -37.44 9.12 C-41.16 9.84 -44.26 10 -48 10 C-48.99 10.66 -49.98 11.32 -51 12 C-51.99 11.01 -52.98 10.02 -54 9 C-54 8.67 -54 8.34 -54 8 C-46.95 6.69 -39.91 5.39 -32.86 4.1 C-30.46 3.66 -28.06 3.22 -25.66 2.77 C-22.22 2.13 -18.77 1.5 -15.33 0.87 C-14.26 0.67 -13.18 0.47 -12.08 0.26 C-11.58 0.17 -11.58 0.17 -9.04 -0.29 C-8.16 -0.45 -7.29 -0.61 -6.38 -0.78 C-4 -1 -4 -1 0 0 Z " fill="#0A9B45" transform="translate(644,552)"/>
<path d="M0 0 C0.16 0.33 0.16 0.33 1 2 C0.42 2 0.42 2 -2.49 1.98 C-6.86 1.97 -11.22 1.95 -15.58 1.95 C-17.46 1.94 -19.33 1.93 -21.2 1.92 C-33.18 1.87 -45.04 2.13 -57 3 C-57.33 2.01 -57.66 1.02 -58 0 C-38.85 -2.45 -19.1 -3.67 0 0 Z " fill="#40D3FC" transform="translate(603,301)"/>
<path d="M0 0 C-3.16 4.72 -6.28 6.33 -11.5 8.44 C-17.74 11.03 -23.76 13.81 -29.74 16.93 C-32 18 -32 18 -34 18 C-34 17.34 -34 16.68 -34 16 C-34.66 16 -35.32 16 -36 16 C-36 15.34 -36 14.68 -36 14 C-32 12.06 -28 10.12 -24 8.19 C-22.87 7.64 -21.75 7.09 -20.59 6.53 C-4.17 -1.39 -4.17 -1.39 0 0 Z " fill="#744ADC" transform="translate(366,281)"/>
<path d="M0 0 C-4.05 3.03 -5.31 3.22 -10 4 C-11.32 4.99 -12.64 5.98 -14 7 C-18 8 -18 8 -22 8 C-24.01 8.98 -26.01 9.98 -28 11 C-28.99 11 -29.98 11 -31 11 C-32.68 11.63 -34.35 12.29 -36 13 C-36.99 12.01 -37.98 11.02 -39 10 C-34.53 7.02 -29.62 5.61 -24.56 3.88 C-23.53 3.5 -22.5 3.13 -21.44 2.75 C-14.11 0.24 -7.72 -0.48 0 0 Z " fill="#36B712" transform="translate(744,527)"/>
<path d="M0 0 C0 1.67 0 3.33 0 5 C-15.4 10.91 -30.98 15.91 -46.81 20.5 C-47.73 20.77 -48.65 21.03 -49.6 21.31 C-64.54 25.64 -64.54 25.64 -70 27 C-71.92 27.52 -73.83 28.04 -75.75 28.56 C-76.73 28.83 -77.72 29.1 -78.73 29.38 C-79.48 29.58 -80.23 29.79 -81 30 C-81.33 29.34 -81.66 28.68 -82 28 C-79.1 27.16 -76.21 26.33 -73.31 25.5 C-72.39 25.23 -71.46 24.97 -70.51 24.69 C-64.95 23.1 -59.37 21.56 -53.78 20.07 C-34.91 15.02 -17.34 9.17 0 0 Z " fill="#68F7B6" transform="translate(717,425)"/>
<path d="M0 0 C7.11 0.46 12.46 2.15 19 5 C19 5.66 19 6.32 19 7 C20.55 7.39 22.09 7.78 23.69 8.19 C28.3 9.56 30.99 11.12 34 15 C34.16 15.5 34.16 15.5 35 18 C28.2 16.53 23.7 15.41 19 10 C15.41 9.1 12.65 8.92 9 9 C9 8.34 9 7.68 9 7 C8.26 6.73 7.51 6.46 6.75 6.19 C4 5 4 5 0 2 C0 1.34 0 0.68 0 0 Z " fill="#015C8E" transform="translate(601,287)"/>
<path d="M0 0 C-4.03 2.69 -8.39 3.72 -13 5.06 C-22.15 7.79 -31.25 10.67 -40.31 13.69 C-41.43 14.06 -42.54 14.42 -43.69 14.8 C-51.95 17.57 -60.08 20.52 -67.94 24.31 C-72 26 -72 26 -75 25 C-69.36 20.65 -63.08 18.63 -56.44 16.31 C-55.83 16.1 -55.83 16.1 -52.75 15.01 C-42.31 11.36 -31.76 8.04 -21.16 4.87 C-20 4.52 -18.84 4.17 -17.65 3.81 C-17.14 3.66 -17.14 3.66 -14.56 2.89 C-5.8 -0.17 -5.8 -0.17 0 0 Z " fill="#3EBBFB" transform="translate(572,391)"/>
<path d="M0 0 C0.8 0.02 0.8 0.02 4.88 0.12 C0.89 2.12 -1.77 2.53 -6.12 3.12 C-9.27 3.96 -12.37 4.89 -15.47 5.85 C-19.62 7.12 -23.7 8.25 -27.94 9.19 C-32.24 10.15 -35.67 11.19 -39.38 13.56 C-43.14 15.7 -46.99 16.83 -51.12 18.12 C-49.77 14.05 -48.11 13.73 -44.31 11.81 C-31.31 5.53 -14.6 -0.37 0 0 Z " fill="#42D7B2" transform="translate(554.125,580.875)"/>
<path d="M0 0 C-0.33 8.25 -0.66 16.5 -1 25 C-1.33 25 -1.66 25 -2 25 C-2.33 18.4 -2.66 11.8 -3 5 C-6 9 -6 9 -6.38 11.88 C-7.19 15.96 -9.21 17.99 -12 21 C-13 18 -13 18 -12 14 C-16 16 -16 16 -19 18 C-15.8 11.59 -7.75 0 0 0 Z " fill="#5C21B1" transform="translate(228,398)"/>
<path d="M0 0 C-0.33 0.66 -0.66 1.32 -1 2 C-1.66 2 -2.32 2 -3 2 C-3 2.66 -3 3.32 -3 4 C-8.96 7.98 -13.88 9.34 -21 10 C-22.46 10.23 -23.93 10.45 -25.44 10.69 C-26.61 10.79 -27.79 10.89 -29 11 C-29.66 10.34 -30.32 9.68 -31 9 C-21.28 4.39 -10.92 -0.51 0 0 Z " fill="#81CFFD" transform="translate(490,313)"/>
<path d="M0 0 C0 0.33 0 0.66 0 1 C0.99 1.16 0.99 1.16 6 2 C5.67 2.99 5.34 3.98 5 5 C-1.83 6.23 -8.59 7.22 -15.51 7.78 C-18.69 8.06 -21.84 8.51 -25 9 C-24.01 7.68 -23.02 6.36 -22 5 C-21.67 4.34 -21.34 3.68 -21 3 C-18.49 2.45 -15.98 1.91 -13.45 1.46 C-8.73 0.57 -4.9 -0.08 0 0 Z " fill="#6DB4F3" transform="translate(475,254)"/>
<path d="M0 0 C0 0.99 0 1.98 0 3 C-2.76 4.84 -5.48 6.47 -8.38 8.06 C-8.8 8.3 -8.8 8.3 -10.97 9.52 C-12.75 10.53 -14.54 11.53 -16.34 12.52 C-18.85 13.91 -21.35 15.32 -23.85 16.73 C-32.12 21.39 -40.45 25.88 -49 30 C-49 29.34 -49 28.68 -49 28 C-50.98 28.33 -52.96 28.66 -55 29 C-52.43 26.43 -50.05 25.81 -46.62 24.56 C-38.26 21.3 -30.62 17.1 -22.82 12.68 C-18.72 10.36 -14.54 8.24 -10.3 6.18 C-6.71 4.34 -3.38 2.19 0 0 Z " fill="#1C30CC" transform="translate(435,460)"/>
<path d="M0 0 C2 3 2 3 4 7 C4.66 6.34 5.32 5.68 6 5 C5.42 8.08 4.72 11.08 3.94 14.12 C3 18 3 18 3 21 C0.1 27.12 -3.95 31.31 -8.75 35.94 C-9.45 36.62 -10.14 37.31 -10.86 38.01 C-12.57 39.68 -14.28 41.34 -16 43 C-16.66 42.67 -17.32 42.34 -18 42 C-16 38 -16 38 -13.25 36.19 C-9.39 33.59 -6.82 30.69 -4 27 C-4 26.01 -4 25.02 -4 24 C-3.34 22.76 -2.68 21.52 -2 20.25 C1.04 13.79 0.33 6.98 0 0 Z " fill="#6581F7" transform="translate(395,355)"/>
<path d="M0 0 C0 0.66 0 1.32 0 2 C-9.24 5.96 -19.13 7.39 -29 9 C-27.68 8.34 -26.36 7.68 -25 7 C-25 6.34 -25 5.68 -25 5 C-26.65 5 -28.3 5 -30 5 C-20.65 0.33 -10.32 -0.51 0 0 Z " fill="#7BF2C2" transform="translate(571,574)"/>
<path d="M0 0 C-16.01 6.5 -32.01 11.67 -49 15 C-49.82 15.19 -50.65 15.38 -51.5 15.57 C-54.47 16.08 -57.3 16.1 -60.31 16.06 C-61.38 16.05 -62.45 16.04 -63.55 16.04 C-64.36 16.02 -65.17 16.01 -66 16 C-66 15.67 -66 15.34 -66 15 C-64.66 14.77 -63.31 14.54 -61.93 14.3 C-43.3 11.05 -25.39 7.35 -7.81 0.26 C-4 -1 -4 -1 0 0 Z " fill="#8467FA" transform="translate(383,466)"/>
<path d="M0 0 C-2.67 1.78 -5.03 2.88 -8 4 C-8 4.66 -8 5.32 -8 6 C-16.9 8.69 -24.69 10.51 -34 10 C-30.81 7.87 -28.73 7.5 -25 7 C-25 6.34 -25 5.68 -25 5 C-22.34 4.15 -19.67 3.32 -17 2.5 C-16.26 2.27 -16.26 2.27 -12.5 1.09 C-8.14 0.03 -4.47 -0.2 0 0 Z " fill="#6EE5FC" transform="translate(587,467)"/>
<path d="M0 0 C0.66 0.33 1.32 0.66 2 1 C1.11 2.22 0.23 3.43 -0.69 4.69 C-8.69 16.77 -10.99 28.86 -9 43 C-9 43.99 -9 44.98 -9 46 C-9.66 46 -10.32 46 -11 46 C-14.94 37.82 -14.03 27.19 -11.44 18.69 C-8.86 11.93 -5.14 5.14 0 0 Z " fill="#9549FA" transform="translate(286,336)"/>
<path d="M0 0 C0 1.33 0 2.67 0 4 C-1.54 4.27 -3.09 4.53 -4.68 4.8 C-6.74 5.16 -8.81 5.52 -10.88 5.88 C-11.38 5.96 -11.38 5.96 -13.95 6.4 C-20.32 7.51 -26.66 8.7 -33 10 C-32.67 9.01 -32.34 8.02 -32 7 C-31.34 7 -30.68 7 -30 7 C-30 6.34 -30 5.68 -30 5 C-26.13 4.16 -22.25 3.33 -18.38 2.5 C-17.28 2.26 -16.19 2.02 -15.06 1.78 C-14 1.55 -12.93 1.33 -11.84 1.09 C-10.86 0.88 -9.89 0.67 -8.88 0.46 C-5.88 -0.02 -3.04 -0.08 0 0 Z " fill="#079FDC" transform="translate(531,300)"/>
<path d="M0 0 C-3.2 3.2 -7.48 2.67 -11.81 3 C-22.26 3.81 -22.26 3.81 -27 6 C-30.33 6.7 -33.66 7.36 -37 8 C-41.89 9.02 -46.39 10.1 -51 12 C-51.99 12 -52.98 12 -54 12 C-56 12.31 -58 12.65 -60 13 C-60.33 12.34 -60.66 11.68 -61 11 C-54.32 8.08 -47.58 6.88 -40.41 5.65 C-37 5 -37 5 -35 4 C-31.65 3.46 -28.3 2.96 -24.94 2.5 C-24.02 2.37 -23.1 2.24 -22.16 2.11 C-7.15 0 -7.15 0 0 0 Z " fill="#5794F9" transform="translate(480,259)"/>
<path d="M0 0 C0.66 0 1.32 0 2 0 C3.88 4.69 4.13 8.23 3.69 13.25 C3.59 14.47 3.49 15.69 3.39 16.95 C3 20 3 20 2 22 C0.68 22.33 -0.64 22.66 -2 23 C-2.99 23.99 -3.98 24.98 -5 26 C-4.67 18.41 -4.34 10.82 -4 3 C-3.67 3 -3.34 3 -3 3 C-2.67 7.95 -2.34 12.9 -2 18 C-1.86 15.77 -1.71 13.55 -1.56 11.25 C-1.31 7.3 -0.96 3.85 0 0 Z " fill="#D4FC69" transform="translate(768,362)"/>
<path d="M0 0 C6.05 0.46 10.65 2.56 15.88 5.44 C16.65 5.85 17.42 6.25 18.21 6.67 C23.86 9.72 23.86 9.72 25 12 C20.03 11.5 16.36 10.45 12 8 C12.99 9.32 13.98 10.64 15 12 C14.67 12.17 14.67 12.17 13 13 C13 12.34 13 11.68 13 11 C12.34 11 11.68 11 11 11 C10.67 10.34 10.34 9.68 10 9 C8.68 8.67 7.36 8.34 6 8 C5.67 8.66 5.34 9.32 5 10 C0 2.25 0 2.25 0 0 Z " fill="#8FC924" transform="translate(735,325)"/>
<path d="M0 0 C16.21 -0.47 31.93 0.94 48 3 C48 2.67 48 2.34 48 2 C50.64 2 53.28 2 56 2 C56 2.66 56 3.32 56 4 C55.01 4 54.02 4 53 4 C52.67 4.99 52.34 5.98 52 7 C50.78 6.83 49.57 6.67 48.31 6.5 C44 6 44 6 39 6 C39 5.34 39 4.68 39 4 C38.31 4.02 37.62 4.05 36.9 4.07 C29.7 4.2 22.84 3.55 15.71 2.51 C10.49 1.79 5.26 1.37 0 1 C0 0.67 0 0.34 0 0 Z " fill="#3EDAFC" transform="translate(555,257)"/>
<path d="M0 0 C2.35 3.52 4.13 7.21 6 11 C6.33 10.34 6.66 9.68 7 9 C8.51 11.27 10.01 13.54 11.5 15.81 C12.34 17.08 13.17 18.34 14.03 19.64 C16.05 23.08 16 24.23 16 28 C17.3 30.02 18.63 32.03 20 34 C12.52 31.51 7.54 20.68 4 14 C1.83 9.32 0 5.25 0 0 Z " fill="#9D5EF6" transform="translate(212,449)"/>
<path d="M0 0 C5.74 8.61 5.19 23.1 3.49 32.98 C3.33 33.64 3.17 34.31 3 35 C1 34 1 34 -1 31 C-0.98 28.21 -0.84 25.41 -0.62 22.62 C-0.11 15.06 0.12 7.58 0 0 Z " fill="#57A600" transform="translate(803,391)"/>
<path d="M0 0 C-2.92 4.38 -7.07 4.97 -12 6 C-16.62 6.19 -16.62 6.19 -20 6 C-20.33 6.99 -20.66 7.98 -21 9 C-23.31 9 -25.62 9 -28 9 C-28 8.34 -28 7.68 -28 7 C-29.98 7.33 -31.96 7.66 -34 8 C-29.48 4.99 -24.48 4.17 -19.25 2.88 C-18.18 2.6 -17.11 2.32 -16 2.04 C-10.56 0.67 -5.66 -0.37 0 0 Z " fill="#66DDFC" transform="translate(593,382)"/>
<path d="M0 0 C-0.66 0.99 -1.32 1.98 -2 3 C-5.62 3.19 -5.62 3.19 -9 3 C-9.33 3.99 -9.66 4.98 -10 6 C-13.22 7.52 -16.37 8.85 -19.69 10.12 C-20.59 10.48 -21.49 10.84 -22.41 11.21 C-31.45 14.76 -31.45 14.76 -36 15 C-36.66 14.34 -37.32 13.68 -38 13 C-33.13 11.04 -28.25 9.08 -23.38 7.12 C-21.99 6.57 -20.61 6.01 -19.19 5.44 C-17.86 4.91 -16.52 4.37 -15.15 3.82 C-13.92 3.33 -12.7 2.84 -11.44 2.33 C-2.36 -1.18 -2.36 -1.18 0 0 Z " fill="#1368CB" transform="translate(453,321)"/>
<path d="M0 0 C-4.67 2.54 -9.25 4.04 -14.38 5.44 C-19.1 6.78 -23.55 8.04 -27.88 10.38 C-28.91 10.91 -29.94 11.45 -31 12 C-34 11 -34 11 -38 9 C-33.83 7.7 -29.67 6.41 -25.5 5.12 C-24.33 4.76 -23.15 4.4 -21.95 4.02 C-4.94 -1.23 -4.94 -1.23 0 0 Z " fill="#A4A1FC" transform="translate(410,271)"/>
<path d="M0 0 C6.94 1.36 13.29 3.43 19.88 6 C20.81 6.36 21.75 6.71 22.71 7.08 C26.37 8.49 29.73 9.82 33 12 C33 12.66 33 13.32 33 14 C30.36 13.67 27.72 13.34 25 13 C25 12.34 25 11.68 25 11 C23.89 10.94 22.77 10.88 21.62 10.81 C16.06 9.83 11.91 7.68 7 5 C5.68 4.34 4.36 3.68 3 3 C2.67 2.34 2.34 1.68 2 1 C1.34 0.67 0.68 0.34 0 0 Z " fill="#1CC5D0" transform="translate(633,264)"/>
<path d="M0 0 C0.66 0.33 1.32 0.66 2 1 C-0.38 6.35 -3.79 7.65 -9 10 C-10.8 10.87 -12.59 11.74 -14.38 12.62 C-14.79 12.83 -14.79 12.83 -16.9 13.85 C-19 15 -19 15 -21 17 C-21.33 16.01 -21.66 15.02 -22 14 C-21.38 13.4 -20.76 12.8 -20.12 12.19 C-18 10 -18 10 -16 7 C-13.38 5.66 -10.7 4.42 -8 3.25 C-6.56 2.62 -5.11 1.98 -3.62 1.33 C-3.03 1.11 -3.03 1.11 0 0 Z " fill="#3F73E0" transform="translate(413,335)"/>
<path d="M0 0 C0.66 0.66 1.32 1.32 2 2 C1.45 2.39 1.45 2.39 -1.3 4.39 C-2.02 4.91 -2.74 5.43 -3.49 5.96 C-5.1 7.13 -6.71 8.29 -8.32 9.45 C-12.49 12.46 -16.66 15.48 -20.82 18.51 C-40.12 32.58 -40.12 32.58 -45 35 C-45.66 34.67 -46.32 34.34 -47 34 C-40.32 29.03 -33.51 24.29 -26.62 19.62 C-18.86 14.35 -11.37 8.81 -4 3 C-2.68 2.01 -1.36 1.02 0 0 Z " fill="#132F98" transform="translate(431,491)"/>
<path d="M0 0 C0.98 0.2 1.96 0.4 2.96 0.61 C8.72 1.65 14.55 1.94 20.39 2.32 C21.62 2.41 22.86 2.49 24.14 2.58 C27.16 2.79 30.18 3 33.2 3.2 C32.87 3.86 32.54 4.52 32.2 5.2 C18.16 5.64 5.77 5.27 -7.8 1.2 C-4.8 -0.8 -4.8 -0.8 0 0 Z " fill="#1E0E94" transform="translate(293.80078125,502.8046875)"/>
<path d="M0 0 C0.66 0 1.32 0 2 0 C3.12 4.75 3.12 4.75 2 7 C1.84 8.89 1.72 10.79 1.62 12.69 C1.07 19.59 0.05 24.11 -5.19 28.94 C-5.65 29.28 -5.65 29.28 -8 31 C-7.59 29.68 -7.17 28.36 -6.75 27 C-4.09 18.13 -1.73 9.1 0 0 Z " fill="#92CA0B" transform="translate(820,437)"/>
<path d="M0 0 C0.66 0 1.32 0 2 0 C4.96 7.31 2.83 12.93 0.94 20.38 C0.58 21.81 0.21 23.24 -0.16 24.71 C-0.3 25.25 -0.3 25.25 -1 28 C-4 24 -4 24 -3.75 19.31 C-3 15 -3 15 -2 14 C-1.79 12.02 -1.63 10.04 -1.5 8.06 C-1.11 2.22 -1.11 2.22 0 0 Z " fill="#CBEF3B" transform="translate(822,442)"/>
<path d="M0 0 C-5.26 3.88 -5.26 3.88 -8.75 4.44 C-12.48 5.08 -15.39 6.59 -18.73 8.32 C-23.12 10.58 -27.55 12.73 -32 14.88 C-32.85 15.29 -33.7 15.71 -34.57 16.14 C-36.69 17.16 -38.84 18.09 -41 19 C-41.66 18.67 -42.32 18.34 -43 18 C-40.56 14.34 -39.08 14.06 -35 12.62 C-30.64 11.03 -26.5 9.33 -22.38 7.19 C-18 5 -18 5 -15 5 C-15 4.34 -15 3.68 -15 3 C-13.68 3 -12.36 3 -11 3 C-11 2.34 -11 1.68 -11 1 C-2.25 -1.12 -2.25 -1.12 0 0 Z " fill="#60A2FC" transform="translate(489,415)"/>
<path d="M0 0 C-3.3 0.66 -6.6 1.32 -10 2 C-9.34 2.66 -8.68 3.32 -8 4 C-10.39 4.51 -12.79 5 -15.19 5.5 C-16.52 5.78 -17.86 6.06 -19.23 6.34 C-24.79 7.31 -28.78 6.94 -34 5 C-34 4.67 -34 4.34 -34 4 C-29.09 3.13 -24.17 2.28 -19.25 1.44 C-17.85 1.19 -16.46 0.94 -15.02 0.69 C-13.68 0.46 -12.33 0.23 -10.95 -0 C-9.72 -0.22 -8.48 -0.43 -7.21 -0.65 C-4 -1 -4 -1 0 0 Z " fill="#5B8DCC" transform="translate(464,256)"/>
<path d="M0 0 C1.92 -0.08 3.84 -0.23 5.75 -0.44 C6.24 -0.49 6.24 -0.49 8.73 -0.75 C9.48 -0.83 10.23 -0.91 11 -1 C7.28 2.72 3.96 3.39 -1 5 C-2.67 5.99 -4.34 6.99 -6 8 C-7.67 8.34 -9.33 8.67 -11 9 C-13.02 9.95 -15.03 10.95 -17 12 C-17 11.01 -17 10.02 -17 9 C-11.25 6 -11.25 6 -9 6 C-9 5.34 -9 4.68 -9 4 C-7.68 3.34 -6.36 2.68 -5 2 C-5.66 1.34 -6.32 0.68 -7 0 C-4 -1 -4 -1 0 0 Z " fill="#36C1FC" transform="translate(522,488)"/>
<path d="M0 0 C0.66 0.33 1.32 0.66 2 1 C-3.24 4.29 -8.07 7.15 -14 9 C-16.35 10.31 -18.68 11.65 -21 13 C-24.32 14.7 -27.65 16.36 -31 18 C-31.33 17.34 -31.66 16.68 -32 16 C-31.01 16 -30.02 16 -29 16 C-29 15.01 -29 14.02 -29 13 C-21.43 9.42 -13.85 5.88 -6.19 2.5 C-5.05 1.99 -3.91 1.49 -2.73 0.97 C-1.83 0.65 -0.93 0.33 0 0 Z " fill="#53A1FB" transform="translate(498,414)"/>
<path d="M0 0 C6.49 2.6 12.08 6.07 15.25 12.55 C17.29 19.3 17.33 26 17 33 C16.67 33.17 16.67 33.17 15 34 C14.97 33.19 14.95 32.38 14.92 31.54 C14.51 23.58 13.96 13.96 8 8 C7.67 8.17 7.67 8.17 6 9 C4.02 6.03 2.04 3.06 0 0 Z " fill="#0AB8D1" transform="translate(667,288)"/>
<path d="M0 0 C-11.32 4.06 -22.86 8 -35 8 C-35 7.01 -35 6.02 -35 5 C-33.35 5 -31.7 5 -30 5 C-29.67 4.34 -29.34 3.68 -29 3 C-26.48 2.69 -26.48 2.69 -23.19 2.56 C-17.36 2.22 -12.15 1.18 -6.56 -0.48 C-4 -1 -4 -1 0 0 Z " fill="#2F25C5" transform="translate(361,502)"/>
<path d="M0 0 C-0.33 0.66 -0.66 1.32 -1 2 C-2.32 2.33 -3.64 2.66 -5 3 C-6.92 4.5 -8.84 6 -10.76 7.5 C-14.3 9.87 -17.92 10.85 -22 12 C-22 11.34 -22 10.68 -22 10 C-22.99 9.67 -23.98 9.34 -25 9 C-24.67 8.01 -24.34 7.02 -24 6 C-23.01 5.67 -22.02 5.34 -21 5 C-21 5.66 -21 6.32 -21 7 C-19.19 6.5 -19.19 6.5 -10 4 C-10 3.34 -10 2.68 -10 2 C-6.2 0.26 -4.4 0 0 0 Z " fill="#3BCCC3" transform="translate(502,598)"/>
<path d="M0 0 C1.65 0 3.3 0 5 0 C4.67 0.5 4.67 0.5 3 3 C2.01 3 1.02 3 0 3 C0 3.66 0 4.32 0 5 C-3 7 -3 7 -7.38 8.44 C-12 10 -12 10 -14.81 11.75 C-17 13 -17 13 -21 12 C-19.02 11.01 -17.04 10.02 -15 9 C-15.66 8.34 -16.32 7.68 -17 7 C-15.94 6.66 -14.88 6.32 -13.79 5.98 C-12.41 5.53 -11.04 5.08 -9.62 4.62 C-8.94 4.4 -8.94 4.4 -5.48 3.29 C-2 2 -2 2 0 0 Z " fill="#65D1FD" transform="translate(513,489)"/>
<path d="M0 0 C0.66 0.33 1.32 0.66 2 1 C0.75 4.75 -0.9 5.62 -4 8 C-4.58 8.64 -5.15 9.28 -5.75 9.94 C-9.05 12.96 -12.81 15.39 -17 17 C-18.32 16.67 -19.64 16.34 -21 16 C-19.76 15.26 -18.52 14.51 -17.25 13.75 C-14.08 11.77 -11.52 9.79 -9 7 C-6.23 4.06 -3.63 1.82 0 0 Z " fill="#23D7E9" transform="translate(657,350)"/>
<path d="M0 0 C-0.33 0.17 -0.33 0.17 -2 1 C-1.67 1.66 -1.34 2.32 -1 3 C-10.38 6 -10.38 6 -16 6 C-16.33 5.67 -16.66 5.34 -17 5 C-18.07 5.47 -19.14 5.95 -20.25 6.44 C-24 8 -24 8 -28 9 C-28.66 8.34 -29.32 7.68 -30 7 C-25.76 5.63 -21.5 4.28 -17.25 2.94 C-16.04 2.55 -14.84 2.16 -13.59 1.76 C-12.43 1.39 -11.27 1.03 -10.08 0.65 C-9.54 0.48 -9.54 0.48 -6.84 -0.38 C-4 -1 -4 -1 0 0 Z " fill="#575CC9" transform="translate(409,267)"/>
<path d="M0 0 C-3 3 -3 3 -7 4 C-11.98 5.47 -16.39 7.62 -21 10 C-22.05 10.52 -23.1 11.03 -24.19 11.56 C-27 13 -27 13 -29.75 14.75 C-30.49 15.16 -31.24 15.57 -32 16 C-32.66 15.67 -33.32 15.34 -34 15 C-26.78 9.49 -19.36 5.53 -11 2 C-10.18 1.65 -9.35 1.29 -8.5 0.93 C-3.42 -1.14 -3.42 -1.14 0 0 Z " fill="#61A8FC" transform="translate(458,328)"/>
<path d="M0 0 C0 0.66 0 1.32 0 2 C1.38 1.75 2.76 1.5 4.19 1.25 C9 1 9 1 11.88 2.81 C12.58 3.53 13.28 4.26 14 5 C14.99 5.66 15.98 6.32 17 7 C-0.49 5.67 -0.49 5.67 -6 2 C-7.99 1.61 -9.99 1.27 -12 1 C-12 0.67 -12 0.34 -12 0 C-7.67 -0.93 -4.33 -0.93 0 0 Z " fill="#01375A" transform="translate(610,294)"/>
<path d="M0 0 C1 3 1 3 -0.48 6.55 C-0.83 7.24 -0.83 7.24 -2.62 10.75 C-3.32 12.13 -4.01 13.5 -4.73 14.92 C-6.91 18.84 -9.32 22.41 -12 26 C-13 22 -13 22 -12 18 C-10.69 16.31 -9.36 14.65 -8 13 C-6.55 10.75 -5.14 8.48 -3.75 6.19 C-3.04 5.03 -2.34 3.86 -1.61 2.67 C-1.34 2.23 -1.34 2.23 0 0 Z " fill="#5B9700" transform="translate(825,531)"/>
<path d="M0 0 C0 0.33 0 0.66 0 1 C-12.87 1 -25.74 1 -39 1 C-39 0.34 -39 -0.32 -39 -1 C-7.43 -2.64 -7.43 -2.64 0 0 Z " fill="#26CDFD" transform="translate(604,302)"/>
<path d="M0 0 C-2.31 2.31 -3.78 2.72 -6.88 3.66 C-7.86 3.96 -8.85 4.26 -9.86 4.57 C-10.9 4.87 -11.93 5.18 -13 5.5 C-13.5 5.65 -13.5 5.65 -16.04 6.43 C-22.32 8.33 -28.55 9.81 -35 11 C-34.67 10.01 -34.34 9.02 -34 8 C-33.61 7.95 -33.61 7.95 -31.62 7.67 C-25.65 6.77 -20.46 5.73 -15 3 C-15.66 2.34 -16.32 1.68 -17 1 C-15.93 1.02 -14.86 1.04 -13.75 1.06 C-9.04 0.98 -4.75 -0.11 0 0 Z " fill="#36D3FC" transform="translate(607,380)"/>
<path d="M0 0 C1.32 0.66 2.64 1.32 4 2 C2.66 2.55 1.33 3.11 -0.05 3.68 C-1.8 4.41 -3.56 5.14 -5.31 5.88 C-5.75 6.06 -5.75 6.06 -7.98 6.98 C-11.51 8.46 -14.81 9.87 -18 12 C-21 13.01 -24 14.01 -27 15 C-27.66 15.33 -27.66 15.33 -31 17 C-31.99 16.67 -32.98 16.34 -34 16 C-30.58 11.43 -29.59 11.62 -24.3 10.76 C-19.91 9.75 -15.76 8.19 -11.56 6.56 C-10.77 6.26 -9.98 5.96 -9.16 5.65 C-5.32 4.14 -2.96 2.96 0 0 Z " fill="#58A4FA" transform="translate(446,323)"/>
<path d="M0 0 C0 0.66 0 1.32 0 2 C-5.57 3.37 -10.25 4 -16 4 C-18.46 4.51 -20.91 5.02 -23.37 5.55 C-27.61 6.27 -31.7 6.12 -36 6 C-36.99 6 -37.98 6 -39 6 C-35.85 2.85 -31.76 3.34 -27.5 3 C-16.4 2.03 -16.4 2.03 -11.19 0.88 C-7.31 0.07 -3.94 -0.17 0 0 Z " fill="#37A0FA" transform="translate(495,258)"/>
<path d="M0 0 C1.32 0.66 2.64 1.32 4 2 C-3.12 3.72 -10.26 5.31 -17.44 6.75 C-18.09 6.88 -18.09 6.88 -21.37 7.55 C-24.9 7.99 -27.55 7.79 -31 7 C-28.42 4.42 -26.82 4.48 -23.22 3.96 C-22.07 3.8 -20.92 3.63 -19.73 3.45 C-19.12 3.37 -19.12 3.37 -16.06 2.94 C-13.68 2.59 -11.29 2.25 -8.91 1.9 C-7.85 1.75 -6.79 1.6 -5.7 1.45 C-3 1 -3 1 0 0 Z " fill="#50E19C" transform="translate(586,574)"/>
<path d="M0 0 C-3.51 2.34 -6.78 3.32 -10.81 4.56 C-11.51 4.78 -11.51 4.78 -15.02 5.88 C-18.36 6.82 -21.57 7.52 -25 8 C-20.29 1.73 -13.43 0.69 -5.94 -0.81 C-3 -1 -3 -1 0 0 Z " fill="#0F8DE0" transform="translate(476,315)"/>
<path d="M0 0 C1.9 0.11 3.79 0.24 5.69 0.38 C6.74 0.44 7.8 0.51 8.89 0.59 C14.58 1.34 18.29 3.86 23 7 C23 7.99 23 8.98 23 10 C19.34 9.31 15.78 8.43 12.19 7.44 C11.21 7.17 10.24 6.9 9.23 6.62 C8.86 6.52 8.86 6.52 7 6 C7 5.67 7 5.34 7 5 C8.65 5 10.3 5 12 5 C12 4.34 12 3.68 12 3 C11.29 2.94 11.29 2.94 7.69 2.62 C3 2 3 2 0 0 Z " fill="#3AE7FA" transform="translate(621,263)"/>
<path d="M0 0 C18.76 11.34 18.76 11.34 23 20 C23.59 23.36 23.81 26.58 24 30 C23.34 29.67 22.68 29.34 22 29 C21.71 27.6 21.42 26.2 21.12 24.75 C20.04 20.17 19.07 18.38 16 15 C16 14.34 16 13.68 16 13 C14.68 12.34 13.36 11.68 12 11 C9.89 9.54 7.81 8.03 5.75 6.5 C4.67 5.71 3.59 4.91 2.48 4.09 C1.66 3.4 0.84 2.71 0 2 C0 1.34 0 0.68 0 0 Z " fill="#2F9105" transform="translate(617,660)"/>
<path d="M0 0 C-6.75 4.24 -11.22 5.24 -19.31 5.12 C-20.94 5.11 -22.56 5.09 -24.24 5.07 C-25.48 5.05 -26.72 5.02 -28 5 C-28 4.67 -28 4.34 -28 4 C-24.09 3.13 -20.17 2.28 -16.25 1.44 C-15.14 1.19 -14.03 0.94 -12.88 0.69 C-11.81 0.46 -10.74 0.23 -9.64 -0 C-8.66 -0.22 -7.67 -0.43 -6.66 -0.65 C-4 -1 -4 -1 0 0 Z " fill="#10902C" transform="translate(673,546)"/>
<path d="M0 0 C-5.17 6.77 -5.17 6.77 -9.38 7.94 C-10.24 7.96 -11.11 7.98 -12 8 C-12 7.34 -12 6.68 -12 6 C-13.32 6.33 -14.64 6.66 -16 7 C-15.67 5.68 -15.34 4.36 -15 3 C-12.38 1.7 -12.38 1.7 -9.12 0.69 C-8.59 0.51 -8.59 0.51 -5.88 -0.36 C-3 -1 -3 -1 0 0 Z " fill="#907CF8" transform="translate(364,479)"/>
<path d="M0 0 C0.99 0 1.98 0 3 0 C2.43 4.3 0.9 7.18 -1.44 10.81 C-2.05 11.79 -2.67 12.76 -3.31 13.77 C-3.87 14.51 -4.42 15.24 -5 16 C-5.66 16 -6.32 16 -7 16 C-7.66 14.35 -8.32 12.7 -9 11 C-8.63 10.65 -8.63 10.65 -6.75 8.88 C-4 6 -4 6 -1.88 2.69 C-1.26 1.8 -0.64 0.91 0 0 Z " fill="#027F90" transform="translate(676,320)"/>
</svg>
