<?xml version="1.0" encoding="UTF-8"?>
<!-- Generator: visioncortex VTracer 0.6.12 -->
<svg version="1.1" xmlns="http://www.w3.org/2000/svg" width="1024" height="1024" viewBox="0 0 1024 1024" role="img" aria-label="Thoughtlane">
<path d="M0 0 C1.21 0.17 2.41 0.34 3.65 0.52 C45.58 6.62 98.12 19.43 123 57 C130 70.07 131.94 82.72 128.88 97.38 C112.38 138.05 68.47 155.08 30 169 C28.7 169.47 27.41 169.94 26.07 170.42 C11.96 175.5 -2.2 180.44 -16.46 185.1 C-66.2 201.37 -113.76 222.31 -155 255 C-200.31 290.37 -245.27 318.38 -305.25 308.94 C-337.24 301.88 -367.71 285.29 -384.26 256 C-397.54 230.11 -400.22 203.92 -388.79 176.74 C-382.84 164.33 -374.32 152.09 -363 144 C-362.01 144 -361.02 144 -360 144 C-360.03 144.8 -360.03 144.8 -360.18 148.87 C-360.71 169.92 -358.06 186.94 -342.56 202.44 C-311.89 224.5 -274.92 223.04 -239.62 214.31 C-210.95 206.68 -184.06 194.07 -157.94 180.19 C-110.02 154.9 -59.99 137.25 -7.69 123.44 C47.06 108.98 47.06 108.98 66 98 C66.99 97.45 67.99 96.9 69.01 96.34 C79.01 90.46 89.57 82.06 91.69 70.12 C91.79 69.09 91.89 68.06 92 67 C91.09 68.71 90.18 70.42 89.25 72.19 C79.29 90.98 58.33 98.9 38.8 104.3 C37.72 104.6 36.65 104.9 35.54 105.21 C21.99 108.91 8.27 111.94 -5.44 115 C-30.66 120.64 -55.67 126.65 -80.25 134.69 C-81.81 135.2 -83.38 135.71 -84.99 136.23 C-113.37 145.64 -140.47 157.92 -167.59 170.42 C-209.86 189.87 -260.25 210.93 -306 190 C-321.56 181.84 -334.56 168.66 -338.68 151.09 C-342.67 129.34 -335.74 110.53 -323 93 C-320.48 90.01 -317.89 87.15 -315.2 84.32 C-313 82 -313 82 -310.56 78.88 C-306.52 74.34 -301.74 70.77 -297 67 C-296.2 66.34 -295.41 65.68 -294.59 65 C-246.6 25.34 -181.47 8.13 -121 0 C-119.85 -0.17 -118.71 -0.33 -117.52 -0.5 C-79.57 -5.83 -37.89 -5.65 0 0 Z M-243 107 C-247.23 113.34 -247.7 118.45 -247 126 C-244.34 131.42 -240.66 134.84 -235.12 137.25 C-225.99 139.44 -218.21 136.83 -210.19 132.25 C-203.02 126.69 -199.3 120.88 -198.83 111.75 C-199.01 107.72 -199.83 104.41 -201 100.56 C-201.37 99.33 -201.74 98.09 -202.12 96.82 C-202.41 95.89 -202.7 94.96 -203 94 C-201.8 93.65 -200.61 93.3 -199.38 92.94 C-195.21 91.44 -191.64 89.86 -187.74 87.83 C-125.19 56.26 -50.26 36.89 20 43 C8.03 37.02 -7.83 37.4 -21 37 C-22.05 36.96 -23.09 36.92 -24.17 36.88 C-86.97 35.55 -197.16 60.33 -243 107 Z " fill="#255CC4" transform="translate(588,254)"/>
<path d="M0 0 C12.27 1 23.87 9.2 33 17 C34.08 17.86 35.15 18.72 36.26 19.61 C57.35 36.85 71.51 60.03 72.38 87.69 C71.91 115.26 56.25 137.64 35.72 154.73 C-7.9 187.39 -66.84 194.29 -118.85 204.24 C-120.27 204.52 -121.7 204.79 -123.17 205.07 C-124.6 205.34 -126.03 205.62 -127.5 205.9 C-277.91 234.7 -277.91 234.7 -303 279 C-306.99 288.73 -307.36 298.33 -304.44 308.38 C-301.29 314.36 -297.66 319.22 -292 323 C-292 323.66 -292 324.32 -292 325 C-305.61 324.77 -317.14 316.83 -326 307 C-337.2 292.57 -340.3 275.65 -336.81 257.88 C-327.93 220.88 -294.48 196.61 -263 179 C-262.23 178.57 -262.23 178.57 -258.34 176.38 C-215.66 153.21 -168.32 140.1 -121.91 126.67 C-107.26 122.42 -92.68 118.02 -78.2 113.21 C-76.88 112.77 -75.55 112.33 -74.19 111.88 C-51.48 104.23 -28.02 95.28 -10 79 C-9.57 78.62 -9.57 78.62 -7.42 76.7 C4.95 65.07 11.68 50.63 10.88 33.5 C10.03 21.81 6.65 11.68 0 2 C0 1.34 0 0.68 0 0 Z " fill="#28A995" transform="translate(735,325)"/>
<path d="M0 0 C0.66 0 1.32 0 2 0 C15.36 35.04 18.63 73.31 1.15 107.63 C-19.11 142.21 -53.47 156.49 -91.46 163.04 C-109.9 165.87 -128.54 167.5 -147.13 169 C-147.65 169.04 -147.65 169.04 -150.26 169.25 C-155.31 169.66 -160.36 170.06 -165.41 170.43 C-206.68 173.68 -206.68 173.68 -220 187 C-222.69 192.38 -222.87 197.15 -222 203 C-216.26 214.62 -204.73 221.19 -194.44 228.55 C-186.97 233.96 -181.04 238.47 -178.88 247.88 C-179.14 258.71 -184.24 265.95 -192 273 C-201.16 279.9 -212.21 286.39 -224 285 C-227.88 282 -227.88 282 -232 278 C-255.51 257.84 -284.54 246.25 -313 235 C-339.29 224.59 -339.29 224.59 -349 217 C-349.55 216.62 -349.55 216.62 -352.31 214.69 C-359.43 207.57 -363.25 199.67 -364.38 189.69 C-362.94 175.56 -354.26 165.8 -343 158 C-319.73 142.95 -292.76 135.94 -265.96 130.19 C-264.36 129.84 -262.76 129.5 -261.11 129.14 C-241.87 125.05 -222.52 121.6 -203.15 118.15 C-76.52 95.46 -76.52 95.46 -33 60 C-32.14 59.31 -31.28 58.61 -30.39 57.89 C-12.33 42.52 -4.24 22.82 0 0 Z " fill="#35B045" transform="translate(820,437)"/>
<path d="M0 0 C1.87 0.08 3.75 0.16 5.68 0.24 C10.12 0.69 10.12 0.69 12.12 2.69 C11 2.65 9.88 2.62 8.73 2.58 C-21.8 2.08 -53.19 5.31 -82.59 13.77 C-88.29 15.36 -94.08 16.51 -99.88 17.69 C-99.88 17.03 -99.88 16.37 -99.88 15.69 C-101.19 16.35 -102.51 17.01 -103.88 17.69 C-106.79 18.41 -109.71 19.14 -112.63 19.84 C-117.67 21.15 -122.55 22.9 -127.44 24.69 C-128.5 25.07 -129.56 25.46 -130.65 25.86 C-147.46 32.04 -164.25 38.57 -180.25 46.64 C-182.88 47.69 -182.88 47.69 -185.88 46.69 C-185.21 46.69 -184.56 46.69 -183.88 46.69 C-183.21 45.04 -182.56 43.39 -181.88 41.69 C-177.78 39.36 -177.78 39.36 -172.38 37 C-171.4 36.57 -170.42 36.14 -169.41 35.7 C-147.7 26.32 -125.48 18.6 -102.88 11.69 C-102.28 11.5 -102.28 11.5 -99.28 10.56 C-94.78 9.41 -91.37 9.56 -86.88 10.69 C-84.38 10.19 -81.9 9.6 -79.44 8.95 C-69.31 6.45 -59.14 4.93 -48.81 3.5 C-47.02 3.24 -45.23 2.98 -43.38 2.71 C-28.87 0.66 -14.65 -0.69 0 0 Z " fill="#2392DF" transform="translate(581.875,299.3125)"/>
<path d="M0 0 C3.99 -0.22 7.92 -0.3 11.91 -0.3 C13.14 -0.31 14.37 -0.31 15.63 -0.32 C19.63 -0.33 23.63 -0.32 27.62 -0.31 C28.97 -0.31 30.32 -0.31 31.71 -0.31 C51.28 -0.28 70.6 0.21 90 3 C91.18 3.15 92.37 3.29 93.59 3.44 C102.77 4.65 102.77 4.65 105 8 C110.77 9.66 116.01 10.22 122 10 C122 10.66 122 11.32 122 12 C124.64 12 127.28 12 130 12 C130 12.66 130 13.32 130 14 C123.61 15.46 118.19 14.22 111.94 12.75 C97.4 9.53 82.93 6.96 68 7 C65.41 6.76 62.81 6.51 60.22 6.25 C51.84 5.59 43.4 5.59 34.99 5.39 C33.52 5.36 32.05 5.32 30.54 5.28 C29.21 5.25 27.88 5.22 26.51 5.19 C23 5 23 5 18 4 C18 3.34 18 2.68 18 2 C11.73 2 5.46 2 -1 2 C-0.67 1.34 -0.34 0.68 0 0 Z " fill="#54CDE6" transform="translate(498,251)"/>
<path d="M0 0 C0.99 0 1.98 0 3 0 C4.65 0 6.3 0 8 0 C3.92 2.04 0.15 3.17 -4.25 4.38 C-5.85 4.81 -7.46 5.25 -9.11 5.71 C-13.56 6.88 -18.02 7.99 -22.5 9.06 C-28.6 10.56 -34.2 12.58 -40 15 C-42.45 15.83 -44.91 16.64 -47.38 17.44 C-61.1 21.97 -76.41 27.31 -88 36 C-89.84 36.95 -91.69 37.86 -93.56 38.75 C-101.63 42.72 -109.01 47.34 -116 53 C-118.06 54.56 -120.12 56.13 -122.19 57.69 C-128.06 62.19 -133.56 66.98 -139 72 C-141.28 74.06 -143.59 76.09 -146 78 C-146.66 77.67 -147.32 77.34 -148 77 C-147.29 76.29 -146.58 75.58 -145.84 74.86 C-143.99 73 -142.16 71.13 -140.34 69.24 C-121.64 50 -121.64 50 -116 50 C-116 49.34 -116 48.68 -116 48 C-113.67 46.55 -111.35 45.1 -108.97 43.73 C-106.77 42.45 -104.61 41.11 -102.48 39.73 C-88.14 30.98 -72.69 23.01 -57 17 C-55.65 16.48 -54.29 15.95 -52.89 15.41 C-39.07 10.21 -25.05 5.54 -11 1 C-9.66 0.56 -8.33 0.13 -6.95 -0.32 C-4 -1 -4 -1 0 0 Z " fill="#6ED6FC" transform="translate(570,472)"/>
<path d="M0 0 C-3.72 3.72 -5.9 3.58 -11 4 C-11 4.66 -11 5.32 -11 6 C-21 8 -21 8 -24 8 C-24.33 8.66 -24.66 9.32 -25 10 C-28.33 10.35 -31.67 10.68 -35 11 C-58.06 15.11 -80.34 23.3 -102 32 C-102.33 31.34 -102.66 30.68 -103 30 C-82.88 9.88 -27.61 -0.34 0 0 Z " fill="#6485E4" transform="translate(452,258)"/>
<path d="M0 0 C-0.33 1.32 -0.66 2.64 -1 4 C-1.66 4 -2.32 4 -3 4 C-3 4.66 -3 5.32 -3 6 C-4.32 6.33 -5.64 6.66 -7 7 C-7.33 7.66 -7.66 8.32 -8 9 C-7.34 9 -6.68 9 -6 9 C-1.81 15.99 -2.18 22.01 -3 30 C-6.46 38.77 -13.07 45.63 -22 49 C-23.65 49 -25.3 49 -27 49 C-27.33 49.17 -27.33 49.17 -29 50 C-29.66 49.34 -30.32 48.68 -31 48 C-30.2 47.66 -29.41 47.32 -28.59 46.97 C-20.21 43.14 -15.06 39.35 -11.62 30.44 C-10.28 23.02 -11.57 18.1 -14 11 C-14 9.35 -14 7.7 -14 6 C-11.45 4.2 -11.45 4.2 -8.12 2.69 C-7.03 2.18 -5.94 1.66 -4.82 1.14 C-2 0 -2 0 0 0 Z " fill="#1E44D3" transform="translate(399,342)"/>
<path d="M0 0 C-1.12 -0.03 -2.24 -0.07 -3.4 -0.11 C-33.92 -0.61 -65.31 2.63 -94.71 11.09 C-100.41 12.67 -106.21 13.82 -112 15 C-112 14.34 -112 13.68 -112 13 C-112.66 13.33 -112.66 13.33 -116 15 C-116.66 14.34 -117.32 13.68 -118 13 C-14.78 -14.78 -14.78 -14.78 0 0 Z " fill="#63D5FC" transform="translate(594,302)"/>
<path d="M0 0 C6.62 1.69 9.79 4.62 12.88 10.69 C14 14 14 14 13 16 C13.66 16.33 14.32 16.66 15 17 C17.32 24.34 14.75 32.12 12 39 C10.18 41.23 8.27 43.39 6.31 45.5 C5.81 46.05 5.81 46.05 3.24 48.84 C0.03 51.98 -3.29 54.5 -7 57 C-7 54 -7 54 -3.88 51 C-0.03 47.03 2.16 43.5 4.64 38.65 C5.98 36.04 7.49 33.52 9 31 C10.47 18.01 7.33 10.59 0 0 Z " fill="#32E1EE" transform="translate(673,292)"/>
<path d="M0 0 C-3.48 2.61 -5.77 3.84 -9.75 5.31 C-10.9 5.74 -12.04 6.17 -13.22 6.61 C-14.47 7.07 -15.72 7.53 -17 8 C-18.34 8.51 -19.68 9.02 -21.06 9.55 C-28.31 12.32 -35.53 14.87 -43 17 C-44.11 17.36 -45.21 17.73 -46.36 18.1 C-47.52 18.48 -48.68 18.86 -49.88 19.25 C-50.41 19.43 -50.41 19.43 -53.12 20.33 C-56 21 -56 21 -60 20 C-58.02 19.34 -56.04 18.68 -54 18 C-54 17.34 -54 16.68 -54 16 C-54.66 15.67 -55.32 15.34 -56 15 C-55.11 14.76 -54.21 14.53 -53.29 14.28 C-37.48 10.1 -21.81 5.94 -6.51 0.12 C-3 -1 -3 -1 0 0 Z " fill="#54DEFC" transform="translate(630,370)"/>
<path d="M0 0 C-0.66 0 -1.32 0 -2 0 C-2 0.66 -2 1.32 -2 2 C-1.01 2.33 -0.02 2.66 1 3 C0.11 3.23 -0.78 3.47 -1.7 3.71 C-16.5 7.81 -30.7 13.44 -45 19 C-45.33 18.34 -45.66 17.68 -46 17 C-41.47 12.47 -37.05 10.76 -31.19 8.56 C-30.16 8.17 -29.13 7.78 -28.08 7.38 C-5.16 -1.29 -5.16 -1.29 0 0 Z " fill="#6A54DA" transform="translate(395,271)"/>
<path d="M0 0 C-1.32 1.32 -2.64 2.64 -4 4 C-4.33 4.66 -4.66 5.32 -5 6 C-7.33 6.34 -9.67 6.67 -12 7 C-13.49 7.5 -14.97 7.99 -16.5 8.5 C-20.44 9.81 -23.92 10.45 -28 11 C-29.65 11.66 -31.3 12.32 -33 13 C-35.66 13.39 -38.33 13.73 -41 14 C-41 13.34 -41 12.68 -41 12 C-41.66 11.67 -42.32 11.34 -43 11 C-11.7 0 -11.7 0 0 0 Z " fill="#81F1D0" transform="translate(555,576)"/>
<path d="M0 0 C-4.57 4.57 -7.85 5.38 -14 7 C-14 7.66 -14 8.32 -14 9 C-16.73 10.36 -19.51 11.61 -22.31 12.81 C-27.73 15.15 -33.12 17.51 -38.44 20.06 C-43 22 -43 22 -46 21 C-45.34 21 -44.68 21 -44 21 C-43.34 19.35 -42.68 17.7 -42 16 C-38.67 14.15 -35.49 12.6 -32 11.12 C-31.51 10.91 -31.51 10.91 -29.03 9.83 C-2.95 -1.48 -2.95 -1.48 0 0 Z " fill="#2B71DB" transform="translate(442,325)"/>
<path d="M0 0 C0 3 0 3 -1.81 6.31 C-9.87 23.57 -8.24 39.92 -1 57 C-0.67 58.32 -0.34 59.64 0 61 C-0.99 61 -1.98 61 -3 61 C-11.92 47.86 -12.52 31.55 -9.06 16.52 C-4.82 2.41 -4.82 2.41 0 0 Z " fill="#C083F9" transform="translate(221,403)"/>
<path d="M0 0 C0.99 0.66 1.98 1.32 3 2 C4.08 16.25 -0.17 32.1 -6 45 C-6.66 44.34 -7.32 43.68 -8 43 C-9.32 44.32 -10.64 45.64 -12 47 C-10.9 44.26 -9.79 41.53 -8.6 38.83 C-3.35 26.61 -0.52 14.36 -1 1 C-0.67 0.67 -0.34 0.34 0 0 Z " fill="#DCFB5B" transform="translate(821,442)"/>
</svg>
